M48
INCH,LZ
T1C0.0315
T2C0.0394
T3C0.0472
T4C0.0610
%
G90
G05
T1
X041Y-023
X042002Y-0275
X042002Y-0285
X042002Y-0295
X042002Y-0305
X045Y-023
X045002Y-0275
X045002Y-0285
X045002Y-0295
X045002Y-0305
X04685Y-03034
X04775Y-0275
X048228Y-03034
X05175Y-0275
X051812Y-03132
X051812Y-03232
X051812Y-03332
X051812Y-03432
X053Y-027
X0534Y-0366
X054Y-02175
X054812Y-03132
X054812Y-03232
X054812Y-03332
X054812Y-03432
X055369Y-0366
X057Y-027
X05775Y-0335
X058Y-02175
X0585Y-0265
X0585Y-0275
X0585Y-0285
X0585Y-0295
X0615Y-0265
X0615Y-0275
X0615Y-0285
X0615Y-0295
X06175Y-0335
T2
X0344Y-0274
X0344Y-0284
X0344Y-0294
T3
X036031Y-022675
X036031Y-024053
X036031Y-025431
T4
X0345Y-0205
X0345Y-0425
X0665Y-0205
X0665Y-0425
M30
