G04 #@! TF.GenerationSoftware,KiCad,Pcbnew,10.0.6*
G04 #@! TF.CreationDate,2026-09-15T09:13:40-04:00*
G04 #@! TF.ProjectId,ECG Project,45434720-5072-46f6-9a65-63742e6b6963,rev?*
G04 #@! TF.SameCoordinates,Original*
G04 #@! TF.FileFunction,Copper,L2,Bot*
G04 #@! TF.FilePolarity,Positive*
%FSLAX46Y46*%
G04 Gerber Fmt 4.6, Leading zero omitted, Abs format (unit mm)*
G04 Created by KiCad (PCBNEW 10.0.6) date 2026-09-15 09:13:40*
%MOMM*%
%LPD*%
G01*
G04 APERTURE LIST*
G04 Aperture macros list*
%AMRoundRect*
0 Rectangle with rounded corners*
0 $1 Rounding radius*
0 $2 $3 $4 $5 $6 $7 $8 $9 X,Y pos of 4 corners*
0 Add a 4 corners polygon primitive as box body*
4,1,4,$2,$3,$4,$5,$6,$7,$8,$9,$2,$3,0*
0 Add four circle primitives for the rounded corners*
1,1,$1+$1,$2,$3*
1,1,$1+$1,$4,$5*
1,1,$1+$1,$6,$7*
1,1,$1+$1,$8,$9*
0 Add four rect primitives between the rounded corners*
20,1,$1+$1,$2,$3,$4,$5,0*
20,1,$1+$1,$4,$5,$6,$7,0*
20,1,$1+$1,$6,$7,$8,$9,0*
20,1,$1+$1,$8,$9,$2,$3,0*%
G04 Aperture macros list end*
G04 #@! TA.AperFunction,ComponentPad*
%ADD10C,1.600000*%
G04 #@! TD*
G04 #@! TA.AperFunction,ComponentPad*
%ADD11RoundRect,0.250000X-0.550000X-0.550000X0.550000X-0.550000X0.550000X0.550000X-0.550000X0.550000X0*%
G04 #@! TD*
G04 #@! TA.AperFunction,ComponentPad*
%ADD12RoundRect,0.250001X-0.949999X0.949999X-0.949999X-0.949999X0.949999X-0.949999X0.949999X0.949999X0*%
G04 #@! TD*
G04 #@! TA.AperFunction,ComponentPad*
%ADD13C,2.400000*%
G04 #@! TD*
G04 #@! TA.AperFunction,ComponentPad*
%ADD14R,1.700000X1.700000*%
G04 #@! TD*
G04 #@! TA.AperFunction,ComponentPad*
%ADD15C,1.700000*%
G04 #@! TD*
G04 #@! TA.AperFunction,ComponentPad*
%ADD16RoundRect,0.250000X0.550000X0.550000X-0.550000X0.550000X-0.550000X-0.550000X0.550000X-0.550000X0*%
G04 #@! TD*
G04 #@! TA.AperFunction,ViaPad*
%ADD17C,0.600000*%
G04 #@! TD*
G04 #@! TA.AperFunction,Conductor*
%ADD18C,0.600000*%
G04 #@! TD*
G04 #@! TA.AperFunction,Conductor*
%ADD19C,0.200000*%
G04 #@! TD*
G04 APERTURE END LIST*
D10*
G04 #@! TO.P,R'1,1*
G04 #@! TO.N,Net-(U3--)*
X128270000Y-95250000D03*
G04 #@! TO.P,R'1,2*
G04 #@! TO.N,/Vo*
X138430000Y-95250000D03*
G04 #@! TD*
D11*
G04 #@! TO.P,U1,1,Rg_1*
G04 #@! TO.N,Net-(Rg1-Pad1)*
X116210000Y-74295000D03*
D10*
G04 #@! TO.P,U1,2,-_2*
G04 #@! TO.N,/Vi2*
X116210000Y-76835000D03*
G04 #@! TO.P,U1,3,+_3*
G04 #@! TO.N,/Vi1*
X116210000Y-79375000D03*
G04 #@! TO.P,U1,4,Vs-_4*
G04 #@! TO.N,-9V*
X116210000Y-81915000D03*
G04 #@! TO.P,U1,5,Ref_5*
G04 #@! TO.N,GNDREF*
X123830000Y-81915000D03*
G04 #@! TO.P,U1,6*
G04 #@! TO.N,Net-(Ci1-Pad1)*
X123830000Y-79375000D03*
G04 #@! TO.P,U1,7,Vs+_7*
G04 #@! TO.N,+9V*
X123830000Y-76835000D03*
G04 #@! TO.P,U1,8,Rg_8*
G04 #@! TO.N,Net-(Rg1-Pad2)*
X123830000Y-74295000D03*
G04 #@! TD*
D12*
G04 #@! TO.P,J1,1,Pin_1_1*
G04 #@! TO.N,+9V*
X104140000Y-71120000D03*
D13*
G04 #@! TO.P,J1,2,Pin_2_2*
G04 #@! TO.N,-9V*
X104140000Y-74620000D03*
G04 #@! TO.P,J1,3,Pin_3_3*
G04 #@! TO.N,GNDREF*
X104140000Y-78120000D03*
G04 #@! TD*
D10*
G04 #@! TO.P,R3,1*
G04 #@! TO.N,Net-(Cf1-Pad2)*
X155702000Y-75565000D03*
G04 #@! TO.P,R3,2*
G04 #@! TO.N,Net-(U3--)*
X155702000Y-85725000D03*
G04 #@! TD*
G04 #@! TO.P,Rg1,1*
G04 #@! TO.N,Net-(Rg1-Pad1)*
X114935000Y-70485000D03*
G04 #@! TO.P,Rg1,2*
G04 #@! TO.N,Net-(Rg1-Pad2)*
X125095000Y-70485000D03*
G04 #@! TD*
G04 #@! TO.P,R2,1*
G04 #@! TO.N,Net-(U2--)*
X142240000Y-86995000D03*
G04 #@! TO.P,R2,2*
G04 #@! TO.N,Net-(Cf1-Pad2)*
X152400000Y-86995000D03*
G04 #@! TD*
D14*
G04 #@! TO.P,J2,1,Pin_1_1*
G04 #@! TO.N,/Vi1*
X99060000Y-88265000D03*
D15*
G04 #@! TO.P,J2,2,Pin_2_2*
G04 #@! TO.N,/Vi2*
X99060000Y-85725000D03*
G04 #@! TO.P,J2,3,Pin_3_3*
G04 #@! TO.N,/Vo*
X99060000Y-83185000D03*
G04 #@! TD*
D16*
G04 #@! TO.P,U3,1,VOS_1*
G04 #@! TO.N,unconnected-(U3-VOS-Pad1)*
X137155000Y-91440000D03*
D10*
G04 #@! TO.P,U3,2,-_2*
G04 #@! TO.N,Net-(U3--)*
X137155000Y-88900000D03*
G04 #@! TO.P,U3,3,+_3*
G04 #@! TO.N,GNDREF*
X137155000Y-86360000D03*
G04 #@! TO.P,U3,4,V-_4*
G04 #@! TO.N,-9V*
X137155000Y-83820000D03*
G04 #@! TO.P,U3,5,NC_5*
G04 #@! TO.N,unconnected-(U3-NC-Pad5)*
X129535000Y-83820000D03*
G04 #@! TO.P,U3,6*
G04 #@! TO.N,/Vo*
X129535000Y-86360000D03*
G04 #@! TO.P,U3,7,V+_7*
G04 #@! TO.N,+9V*
X129535000Y-88900000D03*
G04 #@! TO.P,U3,8,VOS_8*
G04 #@! TO.N,unconnected-(U3-VOS-Pad8)*
X129535000Y-91440000D03*
G04 #@! TD*
G04 #@! TO.P,Ci1,1*
G04 #@! TO.N,Net-(Ci1-Pad1)*
X128540000Y-71755000D03*
G04 #@! TO.P,Ci1,2*
G04 #@! TO.N,Net-(Ci1-Pad2)*
X130540000Y-71755000D03*
G04 #@! TD*
D11*
G04 #@! TO.P,U2,1,VOS_1*
G04 #@! TO.N,unconnected-(U2-VOS-Pad1)*
X143515000Y-70485000D03*
D10*
G04 #@! TO.P,U2,2,-_2*
G04 #@! TO.N,Net-(U2--)*
X143515000Y-73025000D03*
G04 #@! TO.P,U2,3,+_3*
G04 #@! TO.N,GNDREF*
X143515000Y-75565000D03*
G04 #@! TO.P,U2,4,V-_4*
G04 #@! TO.N,-9V*
X143515000Y-78105000D03*
G04 #@! TO.P,U2,5,NC_5*
G04 #@! TO.N,unconnected-(U2-NC-Pad5)*
X151135000Y-78105000D03*
G04 #@! TO.P,U2,6*
G04 #@! TO.N,Net-(Cf1-Pad2)*
X151135000Y-75565000D03*
G04 #@! TO.P,U2,7,V+_7*
G04 #@! TO.N,+9V*
X151135000Y-73025000D03*
G04 #@! TO.P,U2,8,VOS_8*
G04 #@! TO.N,unconnected-(U2-VOS-Pad8)*
X151135000Y-70485000D03*
G04 #@! TD*
G04 #@! TO.P,R1,1*
G04 #@! TO.N,Net-(Ci1-Pad2)*
X134620000Y-68580000D03*
G04 #@! TO.P,R1,2*
G04 #@! TO.N,Net-(U2--)*
X134620000Y-78740000D03*
G04 #@! TD*
G04 #@! TO.P,Cf1,1*
G04 #@! TO.N,Net-(U2--)*
X146320000Y-82550000D03*
G04 #@! TO.P,Cf1,2*
G04 #@! TO.N,Net-(Cf1-Pad2)*
X148320000Y-82550000D03*
G04 #@! TD*
D17*
G04 #@! TO.N,/Vo*
X115200000Y-90700000D03*
G04 #@! TO.N,/Vi1*
X112100000Y-83500000D03*
G04 #@! TO.N,/Vi2*
X111000000Y-81400000D03*
G04 #@! TD*
G04 #@! TO.N,+9V*
D18*
X134361000Y-93726000D02*
X129535000Y-88900000D01*
X150100000Y-91708000D02*
X148082000Y-93726000D01*
X150100000Y-85866000D02*
X150100000Y-91708000D01*
X159512000Y-74168000D02*
X159512000Y-76454000D01*
X159512000Y-76454000D02*
X150100000Y-85866000D01*
X158369000Y-73025000D02*
X159512000Y-74168000D01*
X148082000Y-93726000D02*
X134361000Y-93726000D01*
X151135000Y-73025000D02*
X158369000Y-73025000D01*
G04 #@! TO.N,/Vo*
D19*
X99195000Y-90700000D02*
X115200000Y-90700000D01*
X97910000Y-89415000D02*
X99195000Y-90700000D01*
X97910000Y-84335000D02*
X97910000Y-89415000D01*
X99060000Y-83185000D02*
X97910000Y-84335000D01*
G04 #@! TO.N,/Vi1*
X107335000Y-88265000D02*
X112100000Y-83500000D01*
X99060000Y-88265000D02*
X107335000Y-88265000D01*
G04 #@! TO.N,/Vi2*
X103385000Y-81400000D02*
X111000000Y-81400000D01*
X99060000Y-85725000D02*
X103385000Y-81400000D01*
G04 #@! TO.N,-9V*
D18*
X134615000Y-81280000D02*
X137155000Y-83820000D01*
X134615000Y-81280000D02*
X131572000Y-78237000D01*
X104140000Y-74620000D02*
X108915000Y-74620000D01*
X128270000Y-81280000D02*
X134615000Y-81280000D01*
X116210000Y-81915000D02*
X119639000Y-85344000D01*
X108915000Y-74620000D02*
X116210000Y-81915000D01*
X145034000Y-69596000D02*
X145034000Y-76586000D01*
X139700000Y-68834000D02*
X144272000Y-68834000D01*
X131572000Y-78237000D02*
X131572000Y-76962000D01*
X145034000Y-76586000D02*
X143515000Y-78105000D01*
X144272000Y-68834000D02*
X145034000Y-69596000D01*
X119639000Y-85344000D02*
X124206000Y-85344000D01*
X131572000Y-76962000D02*
X139700000Y-68834000D01*
X124206000Y-85344000D02*
X128270000Y-81280000D01*
G04 #@! TO.N,+9V*
X106015000Y-72995000D02*
X119990000Y-72995000D01*
X139368629Y-68034000D02*
X130567629Y-76835000D01*
X151135000Y-73025000D02*
X146144000Y-68034000D01*
X104140000Y-71120000D02*
X106015000Y-72995000D01*
X130567629Y-76835000D02*
X123830000Y-76835000D01*
X119990000Y-72995000D02*
X123830000Y-76835000D01*
X146144000Y-68034000D02*
X139368629Y-68034000D01*
G04 #@! TD*
G04 #@! TA.AperFunction,Conductor*
G04 #@! TO.N,GNDREF*
G36*
X119715520Y-73715185D02*
G01*
X119736162Y-73731819D01*
X122600597Y-76596254D01*
X122634082Y-76657577D01*
X122635389Y-76703333D01*
X122629500Y-76740513D01*
X122629500Y-76929486D01*
X122659059Y-77116118D01*
X122717454Y-77295836D01*
X122803240Y-77464199D01*
X122914310Y-77617073D01*
X123047927Y-77750690D01*
X123200801Y-77861760D01*
X123280347Y-77902290D01*
X123369163Y-77947545D01*
X123369165Y-77947545D01*
X123369168Y-77947547D01*
X123448535Y-77973335D01*
X123490803Y-77987069D01*
X123548478Y-78026507D01*
X123575676Y-78090866D01*
X123563761Y-78159712D01*
X123516516Y-78211188D01*
X123490803Y-78222931D01*
X123369163Y-78262454D01*
X123200800Y-78348240D01*
X123113579Y-78411610D01*
X123047927Y-78459310D01*
X123047925Y-78459312D01*
X123047924Y-78459312D01*
X122914312Y-78592924D01*
X122914312Y-78592925D01*
X122914310Y-78592927D01*
X122866610Y-78658579D01*
X122803240Y-78745800D01*
X122717454Y-78914163D01*
X122659059Y-79093881D01*
X122629500Y-79280513D01*
X122629500Y-79469486D01*
X122659059Y-79656118D01*
X122717454Y-79835836D01*
X122783386Y-79965233D01*
X122803240Y-80004199D01*
X122914310Y-80157073D01*
X123047927Y-80290690D01*
X123200801Y-80401760D01*
X123300273Y-80452443D01*
X123354440Y-80480043D01*
X123405236Y-80528018D01*
X123422031Y-80595839D01*
X123399494Y-80661974D01*
X123344778Y-80705425D01*
X123336469Y-80708457D01*
X123330971Y-80710243D01*
X123148644Y-80803143D01*
X123104077Y-80835523D01*
X123104077Y-80835524D01*
X123783554Y-81515000D01*
X123777339Y-81515000D01*
X123675606Y-81542259D01*
X123584394Y-81594920D01*
X123509920Y-81669394D01*
X123457259Y-81760606D01*
X123430000Y-81862339D01*
X123430000Y-81868553D01*
X122750524Y-81189077D01*
X122750523Y-81189077D01*
X122718143Y-81233644D01*
X122625244Y-81415968D01*
X122562009Y-81610582D01*
X122530000Y-81812682D01*
X122530000Y-82017317D01*
X122562009Y-82219417D01*
X122625244Y-82414031D01*
X122718141Y-82596350D01*
X122718147Y-82596359D01*
X122750523Y-82640921D01*
X122750524Y-82640922D01*
X123430000Y-81961446D01*
X123430000Y-81967661D01*
X123457259Y-82069394D01*
X123509920Y-82160606D01*
X123584394Y-82235080D01*
X123675606Y-82287741D01*
X123777339Y-82315000D01*
X123783553Y-82315000D01*
X123104076Y-82994474D01*
X123148650Y-83026859D01*
X123330968Y-83119755D01*
X123525582Y-83182990D01*
X123727683Y-83215000D01*
X123932317Y-83215000D01*
X124134417Y-83182990D01*
X124329031Y-83119755D01*
X124511349Y-83026859D01*
X124555921Y-82994474D01*
X123876447Y-82315000D01*
X123882661Y-82315000D01*
X123984394Y-82287741D01*
X124075606Y-82235080D01*
X124150080Y-82160606D01*
X124202741Y-82069394D01*
X124230000Y-81967661D01*
X124230000Y-81961448D01*
X124909474Y-82640922D01*
X124909474Y-82640921D01*
X124941859Y-82596349D01*
X125034755Y-82414031D01*
X125097990Y-82219417D01*
X125130000Y-82017317D01*
X125130000Y-81812682D01*
X125097990Y-81610582D01*
X125034755Y-81415968D01*
X124941859Y-81233650D01*
X124909474Y-81189077D01*
X124909474Y-81189076D01*
X124230000Y-81868551D01*
X124230000Y-81862339D01*
X124202741Y-81760606D01*
X124150080Y-81669394D01*
X124075606Y-81594920D01*
X123984394Y-81542259D01*
X123882661Y-81515000D01*
X123876446Y-81515000D01*
X124555922Y-80835524D01*
X124555921Y-80835523D01*
X124511359Y-80803147D01*
X124511350Y-80803141D01*
X124329027Y-80710242D01*
X124323534Y-80708458D01*
X124265859Y-80669020D01*
X124238662Y-80604661D01*
X124250578Y-80535815D01*
X124297822Y-80484340D01*
X124305559Y-80480043D01*
X124459199Y-80401760D01*
X124612073Y-80290690D01*
X124745690Y-80157073D01*
X124856760Y-80004199D01*
X124942547Y-79835832D01*
X125000940Y-79656118D01*
X125019763Y-79537274D01*
X125030500Y-79469486D01*
X125030500Y-79280513D01*
X125000940Y-79093881D01*
X124942545Y-78914163D01*
X124897290Y-78825347D01*
X124856760Y-78745801D01*
X124745690Y-78592927D01*
X124612073Y-78459310D01*
X124459199Y-78348240D01*
X124290836Y-78262454D01*
X124195335Y-78231424D01*
X124169195Y-78222930D01*
X124111521Y-78183493D01*
X124084323Y-78119134D01*
X124096238Y-78050288D01*
X124143482Y-77998812D01*
X124169194Y-77987069D01*
X124290832Y-77947547D01*
X124459199Y-77861760D01*
X124612073Y-77750690D01*
X124745690Y-77617073D01*
X124767821Y-77586613D01*
X124823152Y-77543948D01*
X124868138Y-77535500D01*
X130636625Y-77535500D01*
X130723308Y-77518257D01*
X130792899Y-77524484D01*
X130848077Y-77567346D01*
X130871322Y-77633236D01*
X130871500Y-77639874D01*
X130871500Y-78168006D01*
X130871500Y-78305994D01*
X130871500Y-78305996D01*
X130871499Y-78305996D01*
X130898418Y-78441322D01*
X130898421Y-78441332D01*
X130951222Y-78568807D01*
X131027887Y-78683545D01*
X131027888Y-78683546D01*
X132712162Y-80367819D01*
X132745647Y-80429142D01*
X132740663Y-80498834D01*
X132698791Y-80554767D01*
X132633327Y-80579184D01*
X132624481Y-80579500D01*
X128201004Y-80579500D01*
X128065677Y-80606418D01*
X128065667Y-80606421D01*
X127938192Y-80659222D01*
X127823457Y-80735886D01*
X127823453Y-80735888D01*
X123952162Y-84607181D01*
X123890839Y-84640666D01*
X123864481Y-84643500D01*
X119980519Y-84643500D01*
X119913480Y-84623815D01*
X119892838Y-84607181D01*
X117439402Y-82153745D01*
X117405917Y-82092422D01*
X117404610Y-82046665D01*
X117408711Y-82020778D01*
X117410500Y-82009481D01*
X117410500Y-81820519D01*
X117410500Y-81820514D01*
X117410499Y-81820512D01*
X117380940Y-81633881D01*
X117342313Y-81515000D01*
X117322547Y-81454168D01*
X117322545Y-81454165D01*
X117322545Y-81454163D01*
X117269216Y-81349500D01*
X117236760Y-81285801D01*
X117125690Y-81132927D01*
X116992073Y-80999310D01*
X116839199Y-80888240D01*
X116790018Y-80863181D01*
X116670836Y-80802454D01*
X116596472Y-80778291D01*
X116549195Y-80762930D01*
X116491521Y-80723493D01*
X116464323Y-80659134D01*
X116476238Y-80590288D01*
X116523482Y-80538812D01*
X116549194Y-80527069D01*
X116670832Y-80487547D01*
X116839199Y-80401760D01*
X116992073Y-80290690D01*
X117125690Y-80157073D01*
X117236760Y-80004199D01*
X117322547Y-79835832D01*
X117380940Y-79656118D01*
X117399763Y-79537274D01*
X117410500Y-79469486D01*
X117410500Y-79280513D01*
X117380940Y-79093881D01*
X117322545Y-78914163D01*
X117277290Y-78825347D01*
X117236760Y-78745801D01*
X117125690Y-78592927D01*
X116992073Y-78459310D01*
X116839199Y-78348240D01*
X116670836Y-78262454D01*
X116575335Y-78231424D01*
X116549195Y-78222930D01*
X116491521Y-78183493D01*
X116464323Y-78119134D01*
X116476238Y-78050288D01*
X116523482Y-77998812D01*
X116549194Y-77987069D01*
X116670832Y-77947547D01*
X116839199Y-77861760D01*
X116992073Y-77750690D01*
X117125690Y-77617073D01*
X117236760Y-77464199D01*
X117322547Y-77295832D01*
X117380940Y-77116118D01*
X117386940Y-77078236D01*
X117410500Y-76929486D01*
X117410500Y-76740513D01*
X117380940Y-76553881D01*
X117335440Y-76413849D01*
X117322547Y-76374168D01*
X117322545Y-76374165D01*
X117322545Y-76374163D01*
X117257425Y-76246359D01*
X117236760Y-76205801D01*
X117125690Y-76052927D01*
X116992073Y-75919310D01*
X116839199Y-75808240D01*
X116793804Y-75785110D01*
X116685615Y-75729985D01*
X116634819Y-75682010D01*
X116618024Y-75614189D01*
X116640561Y-75548054D01*
X116695277Y-75504603D01*
X116741910Y-75495500D01*
X116825686Y-75495500D01*
X116825694Y-75495500D01*
X116862569Y-75492598D01*
X116862571Y-75492597D01*
X116862573Y-75492597D01*
X116904191Y-75480505D01*
X117020398Y-75446744D01*
X117161865Y-75363081D01*
X117278081Y-75246865D01*
X117361744Y-75105398D01*
X117407598Y-74947569D01*
X117410500Y-74910694D01*
X117410500Y-73819500D01*
X117430185Y-73752461D01*
X117482989Y-73706706D01*
X117534500Y-73695500D01*
X119648481Y-73695500D01*
X119715520Y-73715185D01*
G37*
G04 #@! TD.AperFunction*
G04 #@! TA.AperFunction,Conductor*
G36*
X160732539Y-66560185D02*
G01*
X160778294Y-66612989D01*
X160789500Y-66664500D01*
X160789500Y-99705500D01*
X160769815Y-99772539D01*
X160717011Y-99818294D01*
X160665500Y-99829500D01*
X97144500Y-99829500D01*
X97077461Y-99809815D01*
X97031706Y-99757011D01*
X97020500Y-99705500D01*
X97020500Y-95155513D01*
X127069500Y-95155513D01*
X127069500Y-95344486D01*
X127099059Y-95531118D01*
X127157454Y-95710836D01*
X127243240Y-95879199D01*
X127354310Y-96032073D01*
X127487927Y-96165690D01*
X127640801Y-96276760D01*
X127720347Y-96317290D01*
X127809163Y-96362545D01*
X127809165Y-96362545D01*
X127809168Y-96362547D01*
X127905497Y-96393846D01*
X127988881Y-96420940D01*
X128175514Y-96450500D01*
X128175519Y-96450500D01*
X128364486Y-96450500D01*
X128551118Y-96420940D01*
X128730832Y-96362547D01*
X128899199Y-96276760D01*
X129052073Y-96165690D01*
X129185690Y-96032073D01*
X129296760Y-95879199D01*
X129382547Y-95710832D01*
X129440940Y-95531118D01*
X129470500Y-95344486D01*
X129470500Y-95155513D01*
X129440940Y-94968881D01*
X129382545Y-94789163D01*
X129296759Y-94620800D01*
X129258504Y-94568147D01*
X129185690Y-94467927D01*
X129052073Y-94334310D01*
X128899199Y-94223240D01*
X128730836Y-94137454D01*
X128551118Y-94079059D01*
X128364486Y-94049500D01*
X128364481Y-94049500D01*
X128175519Y-94049500D01*
X128175514Y-94049500D01*
X127988881Y-94079059D01*
X127809163Y-94137454D01*
X127640800Y-94223240D01*
X127576285Y-94270114D01*
X127487927Y-94334310D01*
X127487925Y-94334312D01*
X127487924Y-94334312D01*
X127354312Y-94467924D01*
X127354312Y-94467925D01*
X127354310Y-94467927D01*
X127331742Y-94498989D01*
X127243240Y-94620800D01*
X127157454Y-94789163D01*
X127099059Y-94968881D01*
X127069500Y-95155513D01*
X97020500Y-95155513D01*
X97020500Y-84269108D01*
X97409500Y-84269108D01*
X97409500Y-89480891D01*
X97443608Y-89608187D01*
X97476554Y-89665250D01*
X97509500Y-89722314D01*
X98794500Y-91007314D01*
X98887686Y-91100500D01*
X99001814Y-91166392D01*
X99129107Y-91200500D01*
X99129108Y-91200500D01*
X114658481Y-91200500D01*
X114725520Y-91220185D01*
X114746162Y-91236819D01*
X114753454Y-91244111D01*
X114753458Y-91244114D01*
X114868182Y-91320771D01*
X114868195Y-91320778D01*
X114978533Y-91366481D01*
X114995672Y-91373580D01*
X114995676Y-91373580D01*
X114995677Y-91373581D01*
X115131004Y-91400500D01*
X115131007Y-91400500D01*
X115268995Y-91400500D01*
X115360041Y-91382389D01*
X115404328Y-91373580D01*
X115531811Y-91320775D01*
X115646542Y-91244114D01*
X115744114Y-91146542D01*
X115820775Y-91031811D01*
X115873580Y-90904328D01*
X115889496Y-90824313D01*
X115900500Y-90768995D01*
X115900500Y-90631004D01*
X115873581Y-90495677D01*
X115873580Y-90495676D01*
X115873580Y-90495672D01*
X115822322Y-90371923D01*
X115820778Y-90368195D01*
X115820771Y-90368182D01*
X115744114Y-90253458D01*
X115744111Y-90253454D01*
X115646545Y-90155888D01*
X115646541Y-90155885D01*
X115531817Y-90079228D01*
X115531804Y-90079221D01*
X115404332Y-90026421D01*
X115404322Y-90026418D01*
X115268995Y-89999500D01*
X115268993Y-89999500D01*
X115131007Y-89999500D01*
X115131005Y-89999500D01*
X114995677Y-90026418D01*
X114995667Y-90026421D01*
X114868195Y-90079221D01*
X114868182Y-90079228D01*
X114753458Y-90155885D01*
X114753454Y-90155888D01*
X114746162Y-90163181D01*
X114684839Y-90196666D01*
X114658481Y-90199500D01*
X99453676Y-90199500D01*
X99386637Y-90179815D01*
X99365995Y-90163181D01*
X98929994Y-89727180D01*
X98896509Y-89665857D01*
X98901493Y-89596165D01*
X98943365Y-89540232D01*
X99008829Y-89515815D01*
X99017675Y-89515499D01*
X99941517Y-89515499D01*
X99941518Y-89515499D01*
X100035304Y-89500646D01*
X100148342Y-89443050D01*
X100238050Y-89353342D01*
X100295646Y-89240304D01*
X100295646Y-89240302D01*
X100295647Y-89240301D01*
X100310500Y-89146524D01*
X100310500Y-88889500D01*
X100330185Y-88822461D01*
X100382989Y-88776706D01*
X100434500Y-88765500D01*
X107400890Y-88765500D01*
X107400892Y-88765500D01*
X107528186Y-88731392D01*
X107642314Y-88665500D01*
X112070995Y-84236819D01*
X112132318Y-84203334D01*
X112158676Y-84200500D01*
X112168995Y-84200500D01*
X112260041Y-84182389D01*
X112304328Y-84173580D01*
X112431811Y-84120775D01*
X112546542Y-84044114D01*
X112644114Y-83946542D01*
X112720775Y-83831811D01*
X112773580Y-83704328D01*
X112790103Y-83621262D01*
X112800500Y-83568995D01*
X112800500Y-83431004D01*
X112773581Y-83295677D01*
X112773580Y-83295676D01*
X112773580Y-83295672D01*
X112768504Y-83283417D01*
X112720778Y-83168195D01*
X112720771Y-83168182D01*
X112644114Y-83053458D01*
X112644111Y-83053454D01*
X112546545Y-82955888D01*
X112546541Y-82955885D01*
X112431817Y-82879228D01*
X112431804Y-82879221D01*
X112304332Y-82826421D01*
X112304322Y-82826418D01*
X112168995Y-82799500D01*
X112168993Y-82799500D01*
X112031007Y-82799500D01*
X112031005Y-82799500D01*
X111895677Y-82826418D01*
X111895667Y-82826421D01*
X111768195Y-82879221D01*
X111768182Y-82879228D01*
X111653458Y-82955885D01*
X111653454Y-82955888D01*
X111555888Y-83053454D01*
X111555885Y-83053458D01*
X111479228Y-83168182D01*
X111479221Y-83168195D01*
X111426421Y-83295667D01*
X111426418Y-83295677D01*
X111399500Y-83431004D01*
X111399500Y-83441324D01*
X111379815Y-83508363D01*
X111363181Y-83529005D01*
X107164005Y-87728181D01*
X107102682Y-87761666D01*
X107076324Y-87764500D01*
X100434499Y-87764500D01*
X100367460Y-87744815D01*
X100321705Y-87692011D01*
X100310499Y-87640500D01*
X100310499Y-87383482D01*
X100295646Y-87289696D01*
X100238050Y-87176658D01*
X100238046Y-87176654D01*
X100238045Y-87176652D01*
X100148347Y-87086954D01*
X100148344Y-87086952D01*
X100148342Y-87086950D01*
X100058865Y-87041359D01*
X100035301Y-87029352D01*
X99941524Y-87014500D01*
X99941519Y-87014500D01*
X99794267Y-87014500D01*
X99727228Y-86994815D01*
X99681473Y-86942011D01*
X99671529Y-86872853D01*
X99700554Y-86809297D01*
X99721381Y-86790182D01*
X99874646Y-86678828D01*
X100013828Y-86539646D01*
X100129524Y-86380405D01*
X100218884Y-86205025D01*
X100279709Y-86017826D01*
X100288111Y-85964777D01*
X100310500Y-85823422D01*
X100310500Y-85626577D01*
X100281631Y-85444312D01*
X100279709Y-85432174D01*
X100249464Y-85339094D01*
X100247470Y-85269256D01*
X100279713Y-85213099D01*
X103555995Y-81936819D01*
X103617318Y-81903334D01*
X103643676Y-81900500D01*
X110458481Y-81900500D01*
X110525520Y-81920185D01*
X110546162Y-81936819D01*
X110553454Y-81944111D01*
X110553458Y-81944114D01*
X110668182Y-82020771D01*
X110668195Y-82020778D01*
X110785566Y-82069394D01*
X110795672Y-82073580D01*
X110795676Y-82073580D01*
X110795677Y-82073581D01*
X110931004Y-82100500D01*
X110931007Y-82100500D01*
X111068995Y-82100500D01*
X111160041Y-82082389D01*
X111204328Y-82073580D01*
X111331811Y-82020775D01*
X111446542Y-81944114D01*
X111544114Y-81846542D01*
X111620775Y-81731811D01*
X111673580Y-81604328D01*
X111700500Y-81468993D01*
X111700500Y-81331007D01*
X111700500Y-81331004D01*
X111673581Y-81195677D01*
X111673580Y-81195676D01*
X111673580Y-81195672D01*
X111670848Y-81189076D01*
X111620778Y-81068195D01*
X111620771Y-81068182D01*
X111544114Y-80953458D01*
X111544111Y-80953454D01*
X111446545Y-80855888D01*
X111446541Y-80855885D01*
X111331817Y-80779228D01*
X111331804Y-80779221D01*
X111204332Y-80726421D01*
X111204322Y-80726418D01*
X111068995Y-80699500D01*
X111068993Y-80699500D01*
X110931007Y-80699500D01*
X110931005Y-80699500D01*
X110795677Y-80726418D01*
X110795667Y-80726421D01*
X110668195Y-80779221D01*
X110668182Y-80779228D01*
X110553458Y-80855885D01*
X110553454Y-80855888D01*
X110546162Y-80863181D01*
X110484839Y-80896666D01*
X110458481Y-80899500D01*
X103319108Y-80899500D01*
X103191812Y-80933608D01*
X103077686Y-80999500D01*
X103077683Y-80999502D01*
X100489408Y-83587777D01*
X100428085Y-83621262D01*
X100358393Y-83616278D01*
X100302460Y-83574406D01*
X100278043Y-83508942D01*
X100279254Y-83480698D01*
X100310500Y-83283422D01*
X100310500Y-83086577D01*
X100279709Y-82892173D01*
X100218882Y-82704970D01*
X100136965Y-82544199D01*
X100129524Y-82529595D01*
X100013828Y-82370354D01*
X99874646Y-82231172D01*
X99715405Y-82115476D01*
X99540029Y-82026117D01*
X99352826Y-81965290D01*
X99158422Y-81934500D01*
X99158417Y-81934500D01*
X98961583Y-81934500D01*
X98961578Y-81934500D01*
X98767173Y-81965290D01*
X98579970Y-82026117D01*
X98404594Y-82115476D01*
X98342479Y-82160606D01*
X98245354Y-82231172D01*
X98245352Y-82231174D01*
X98245351Y-82231174D01*
X98106174Y-82370351D01*
X98106174Y-82370352D01*
X98106172Y-82370354D01*
X98074439Y-82414031D01*
X97990476Y-82529594D01*
X97901117Y-82704970D01*
X97840290Y-82892173D01*
X97809500Y-83086577D01*
X97809500Y-83283422D01*
X97840290Y-83477822D01*
X97840291Y-83477827D01*
X97870533Y-83570903D01*
X97872528Y-83640744D01*
X97840283Y-83696901D01*
X97602686Y-83934500D01*
X97509502Y-84027683D01*
X97509500Y-84027686D01*
X97443608Y-84141812D01*
X97409500Y-84269108D01*
X97020500Y-84269108D01*
X97020500Y-78008575D01*
X102440000Y-78008575D01*
X102440000Y-78231424D01*
X102469085Y-78452354D01*
X102469088Y-78452367D01*
X102526763Y-78667618D01*
X102612045Y-78873502D01*
X102612054Y-78873520D01*
X102723464Y-79066491D01*
X102723473Y-79066504D01*
X102774040Y-79132403D01*
X102774043Y-79132403D01*
X103575387Y-78331059D01*
X103580889Y-78351591D01*
X103659881Y-78488408D01*
X103771592Y-78600119D01*
X103908409Y-78679111D01*
X103928940Y-78684612D01*
X103127595Y-79485955D01*
X103127595Y-79485956D01*
X103193507Y-79536533D01*
X103386485Y-79647949D01*
X103386497Y-79647954D01*
X103592381Y-79733236D01*
X103807632Y-79790911D01*
X103807645Y-79790914D01*
X104028575Y-79820000D01*
X104251425Y-79820000D01*
X104472354Y-79790914D01*
X104472367Y-79790911D01*
X104687618Y-79733236D01*
X104893502Y-79647954D01*
X104893514Y-79647949D01*
X105086498Y-79536530D01*
X105152403Y-79485957D01*
X105152404Y-79485956D01*
X104351059Y-78684612D01*
X104371591Y-78679111D01*
X104508408Y-78600119D01*
X104620119Y-78488408D01*
X104699111Y-78351591D01*
X104704612Y-78331059D01*
X105505956Y-79132404D01*
X105505957Y-79132403D01*
X105556530Y-79066498D01*
X105667949Y-78873514D01*
X105667954Y-78873502D01*
X105753236Y-78667618D01*
X105810911Y-78452367D01*
X105810914Y-78452354D01*
X105840000Y-78231424D01*
X105840000Y-78008575D01*
X105810914Y-77787645D01*
X105810911Y-77787632D01*
X105753236Y-77572381D01*
X105667954Y-77366497D01*
X105667949Y-77366485D01*
X105556533Y-77173507D01*
X105505956Y-77107595D01*
X105505955Y-77107595D01*
X104704612Y-77908939D01*
X104699111Y-77888409D01*
X104620119Y-77751592D01*
X104508408Y-77639881D01*
X104371591Y-77560889D01*
X104351058Y-77555387D01*
X105152403Y-76754043D01*
X105152403Y-76754040D01*
X105086504Y-76703473D01*
X105086491Y-76703464D01*
X104893520Y-76592054D01*
X104893502Y-76592045D01*
X104687618Y-76506763D01*
X104472367Y-76449088D01*
X104472354Y-76449085D01*
X104419415Y-76442116D01*
X104355518Y-76413849D01*
X104317047Y-76355525D01*
X104316216Y-76285660D01*
X104353288Y-76226437D01*
X104416201Y-76196704D01*
X104514785Y-76181090D01*
X104754379Y-76103241D01*
X104978845Y-75988870D01*
X105182656Y-75840793D01*
X105360793Y-75662656D01*
X105508870Y-75458845D01*
X105544863Y-75388205D01*
X105592838Y-75337409D01*
X105655348Y-75320500D01*
X108573481Y-75320500D01*
X108640520Y-75340185D01*
X108661162Y-75356819D01*
X114980597Y-81676254D01*
X115014082Y-81737577D01*
X115015389Y-81783333D01*
X115009500Y-81820513D01*
X115009500Y-82009486D01*
X115039059Y-82196118D01*
X115097454Y-82375836D01*
X115138052Y-82455513D01*
X115183240Y-82544199D01*
X115294310Y-82697073D01*
X115427927Y-82830690D01*
X115580801Y-82941760D01*
X115608529Y-82955888D01*
X115749163Y-83027545D01*
X115749165Y-83027545D01*
X115749168Y-83027547D01*
X115845497Y-83058846D01*
X115928881Y-83085940D01*
X116115514Y-83115500D01*
X116115519Y-83115500D01*
X116304480Y-83115500D01*
X116304481Y-83115500D01*
X116341666Y-83109610D01*
X116410958Y-83118564D01*
X116448745Y-83144402D01*
X119192457Y-85888114D01*
X119208996Y-85899165D01*
X119209000Y-85899169D01*
X119209001Y-85899168D01*
X119307189Y-85964775D01*
X119397332Y-86002113D01*
X119407000Y-86006118D01*
X119434671Y-86017580D01*
X119461591Y-86022934D01*
X119546983Y-86039920D01*
X119570006Y-86044500D01*
X119570007Y-86044500D01*
X124274996Y-86044500D01*
X124383432Y-86022930D01*
X124410328Y-86017580D01*
X124529446Y-85968240D01*
X124537807Y-85964777D01*
X124537808Y-85964776D01*
X124537811Y-85964775D01*
X124652543Y-85888114D01*
X128523838Y-82016819D01*
X128585161Y-81983334D01*
X128611519Y-81980500D01*
X134273481Y-81980500D01*
X134340520Y-82000185D01*
X134361162Y-82016819D01*
X135143843Y-82799500D01*
X135925597Y-83581253D01*
X135959082Y-83642576D01*
X135960389Y-83688331D01*
X135954500Y-83725513D01*
X135954500Y-83914486D01*
X135984059Y-84101118D01*
X136042454Y-84280836D01*
X136074579Y-84343884D01*
X136128240Y-84449199D01*
X136239310Y-84602073D01*
X136372927Y-84735690D01*
X136525801Y-84846760D01*
X136625273Y-84897443D01*
X136679440Y-84925043D01*
X136730236Y-84973018D01*
X136747031Y-85040839D01*
X136724494Y-85106974D01*
X136669778Y-85150425D01*
X136661469Y-85153457D01*
X136655971Y-85155243D01*
X136473644Y-85248143D01*
X136429077Y-85280523D01*
X136429077Y-85280524D01*
X137108554Y-85960000D01*
X137102339Y-85960000D01*
X137000606Y-85987259D01*
X136909394Y-86039920D01*
X136834920Y-86114394D01*
X136782259Y-86205606D01*
X136755000Y-86307339D01*
X136755000Y-86313553D01*
X136075524Y-85634077D01*
X136075523Y-85634077D01*
X136043143Y-85678644D01*
X135950244Y-85860968D01*
X135887009Y-86055582D01*
X135855000Y-86257682D01*
X135855000Y-86462317D01*
X135887009Y-86664417D01*
X135950244Y-86859031D01*
X136043141Y-87041350D01*
X136043147Y-87041359D01*
X136075523Y-87085921D01*
X136075524Y-87085922D01*
X136755000Y-86406446D01*
X136755000Y-86412661D01*
X136782259Y-86514394D01*
X136834920Y-86605606D01*
X136909394Y-86680080D01*
X137000606Y-86732741D01*
X137102339Y-86760000D01*
X137108553Y-86760000D01*
X136429076Y-87439474D01*
X136473650Y-87471859D01*
X136655967Y-87564754D01*
X136661458Y-87566538D01*
X136719135Y-87605973D01*
X136746336Y-87670331D01*
X136734425Y-87739178D01*
X136687183Y-87790655D01*
X136679440Y-87794955D01*
X136525805Y-87873236D01*
X136423885Y-87947286D01*
X136372927Y-87984310D01*
X136372925Y-87984312D01*
X136372924Y-87984312D01*
X136239312Y-88117924D01*
X136239312Y-88117925D01*
X136239310Y-88117927D01*
X136204426Y-88165940D01*
X136128240Y-88270800D01*
X136042454Y-88439163D01*
X135984059Y-88618881D01*
X135954500Y-88805513D01*
X135954500Y-88994486D01*
X135984059Y-89181118D01*
X136042454Y-89360836D01*
X136128240Y-89529199D01*
X136239310Y-89682073D01*
X136372927Y-89815690D01*
X136525801Y-89926760D01*
X136622207Y-89975881D01*
X136679385Y-90005015D01*
X136730181Y-90052990D01*
X136746976Y-90120811D01*
X136724439Y-90186946D01*
X136669723Y-90230397D01*
X136623090Y-90239500D01*
X136539298Y-90239500D01*
X136502432Y-90242401D01*
X136502426Y-90242402D01*
X136344606Y-90288254D01*
X136344603Y-90288255D01*
X136203137Y-90371917D01*
X136203129Y-90371923D01*
X136086923Y-90488129D01*
X136086917Y-90488137D01*
X136003255Y-90629603D01*
X136003254Y-90629606D01*
X135957402Y-90787426D01*
X135957401Y-90787432D01*
X135954500Y-90824298D01*
X135954500Y-92055701D01*
X135957401Y-92092567D01*
X135957402Y-92092573D01*
X136003254Y-92250393D01*
X136003255Y-92250396D01*
X136086917Y-92391862D01*
X136086923Y-92391870D01*
X136203129Y-92508076D01*
X136203133Y-92508079D01*
X136203135Y-92508081D01*
X136344602Y-92591744D01*
X136386224Y-92603836D01*
X136502426Y-92637597D01*
X136502429Y-92637597D01*
X136502431Y-92637598D01*
X136539306Y-92640500D01*
X136539314Y-92640500D01*
X137770686Y-92640500D01*
X137770694Y-92640500D01*
X137807569Y-92637598D01*
X137807571Y-92637597D01*
X137807573Y-92637597D01*
X137849191Y-92625505D01*
X137965398Y-92591744D01*
X138106865Y-92508081D01*
X138223081Y-92391865D01*
X138306744Y-92250398D01*
X138352598Y-92092569D01*
X138355500Y-92055694D01*
X138355500Y-90824306D01*
X138352598Y-90787431D01*
X138347241Y-90768993D01*
X138306745Y-90629606D01*
X138306744Y-90629603D01*
X138306744Y-90629602D01*
X138223081Y-90488135D01*
X138223079Y-90488133D01*
X138223076Y-90488129D01*
X138106870Y-90371923D01*
X138106862Y-90371917D01*
X137965396Y-90288255D01*
X137965393Y-90288254D01*
X137807573Y-90242402D01*
X137807567Y-90242401D01*
X137770701Y-90239500D01*
X137770694Y-90239500D01*
X137686910Y-90239500D01*
X137619871Y-90219815D01*
X137574116Y-90167011D01*
X137564172Y-90097853D01*
X137593197Y-90034297D01*
X137630615Y-90005015D01*
X137665224Y-89987380D01*
X137784199Y-89926760D01*
X137937073Y-89815690D01*
X138070690Y-89682073D01*
X138181760Y-89529199D01*
X138267547Y-89360832D01*
X138325940Y-89181118D01*
X138349611Y-89031665D01*
X138355500Y-88994486D01*
X138355500Y-88805513D01*
X138325940Y-88618881D01*
X138267545Y-88439163D01*
X138181759Y-88270800D01*
X138070690Y-88117927D01*
X137937073Y-87984310D01*
X137784199Y-87873240D01*
X137784191Y-87873236D01*
X137630559Y-87794956D01*
X137579763Y-87746981D01*
X137562968Y-87679160D01*
X137585506Y-87613025D01*
X137640221Y-87569574D01*
X137648544Y-87566537D01*
X137654033Y-87564753D01*
X137836349Y-87471859D01*
X137880921Y-87439474D01*
X137201447Y-86760000D01*
X137207661Y-86760000D01*
X137309394Y-86732741D01*
X137400606Y-86680080D01*
X137475080Y-86605606D01*
X137527741Y-86514394D01*
X137555000Y-86412661D01*
X137555000Y-86406447D01*
X138234474Y-87085921D01*
X138266859Y-87041349D01*
X138338618Y-86900513D01*
X141039500Y-86900513D01*
X141039500Y-87089486D01*
X141069059Y-87276118D01*
X141127454Y-87455836D01*
X141203953Y-87605973D01*
X141213240Y-87624199D01*
X141324310Y-87777073D01*
X141457927Y-87910690D01*
X141610801Y-88021760D01*
X141690347Y-88062290D01*
X141779163Y-88107545D01*
X141779165Y-88107545D01*
X141779168Y-88107547D01*
X141875497Y-88138846D01*
X141958881Y-88165940D01*
X142145514Y-88195500D01*
X142145519Y-88195500D01*
X142334486Y-88195500D01*
X142521118Y-88165940D01*
X142700832Y-88107547D01*
X142869199Y-88021760D01*
X143022073Y-87910690D01*
X143155690Y-87777073D01*
X143266760Y-87624199D01*
X143352547Y-87455832D01*
X143410940Y-87276118D01*
X143426694Y-87176652D01*
X143440500Y-87089486D01*
X143440500Y-86900513D01*
X143410940Y-86713881D01*
X143375759Y-86605606D01*
X143352547Y-86534168D01*
X143352545Y-86534165D01*
X143352545Y-86534163D01*
X143266759Y-86365800D01*
X143262545Y-86360000D01*
X143155690Y-86212927D01*
X143022073Y-86079310D01*
X142869199Y-85968240D01*
X142700836Y-85882454D01*
X142521118Y-85824059D01*
X142334486Y-85794500D01*
X142334481Y-85794500D01*
X142145519Y-85794500D01*
X142145514Y-85794500D01*
X141958881Y-85824059D01*
X141779163Y-85882454D01*
X141610800Y-85968240D01*
X141523579Y-86031610D01*
X141457927Y-86079310D01*
X141457925Y-86079312D01*
X141457924Y-86079312D01*
X141324312Y-86212924D01*
X141324312Y-86212925D01*
X141324310Y-86212927D01*
X141276610Y-86278579D01*
X141213240Y-86365800D01*
X141127454Y-86534163D01*
X141069059Y-86713881D01*
X141039500Y-86900513D01*
X138338618Y-86900513D01*
X138359754Y-86859031D01*
X138360306Y-86857335D01*
X138360306Y-86857334D01*
X138360308Y-86857328D01*
X138422990Y-86664417D01*
X138455000Y-86462317D01*
X138455000Y-86257682D01*
X138422990Y-86055582D01*
X138359755Y-85860968D01*
X138266859Y-85678650D01*
X138234474Y-85634077D01*
X138234474Y-85634076D01*
X137555000Y-86313551D01*
X137555000Y-86307339D01*
X137527741Y-86205606D01*
X137475080Y-86114394D01*
X137400606Y-86039920D01*
X137309394Y-85987259D01*
X137207661Y-85960000D01*
X137201446Y-85960000D01*
X137880922Y-85280524D01*
X137880921Y-85280523D01*
X137836359Y-85248147D01*
X137836350Y-85248141D01*
X137654027Y-85155242D01*
X137648534Y-85153458D01*
X137590859Y-85114020D01*
X137563662Y-85049661D01*
X137575578Y-84980815D01*
X137622822Y-84929340D01*
X137630559Y-84925043D01*
X137784199Y-84846760D01*
X137937073Y-84735690D01*
X138070690Y-84602073D01*
X138181760Y-84449199D01*
X138267547Y-84280832D01*
X138325940Y-84101118D01*
X138355500Y-83914486D01*
X138355500Y-83725513D01*
X138325940Y-83538881D01*
X138267545Y-83359163D01*
X138222290Y-83270347D01*
X138181760Y-83190801D01*
X138070690Y-83037927D01*
X137937073Y-82904310D01*
X137784199Y-82793240D01*
X137615836Y-82707454D01*
X137436118Y-82649059D01*
X137249486Y-82619500D01*
X137249481Y-82619500D01*
X137060519Y-82619500D01*
X137060514Y-82619500D01*
X137023331Y-82625389D01*
X137017906Y-82624687D01*
X137012780Y-82626600D01*
X136983624Y-82620257D01*
X136954038Y-82616434D01*
X136948434Y-82612602D01*
X136944507Y-82611748D01*
X136916253Y-82590597D01*
X136863984Y-82538328D01*
X136781169Y-82455513D01*
X145119500Y-82455513D01*
X145119500Y-82644486D01*
X145149059Y-82831118D01*
X145207454Y-83010836D01*
X145275510Y-83144402D01*
X145293240Y-83179199D01*
X145404310Y-83332073D01*
X145537927Y-83465690D01*
X145690801Y-83576760D01*
X145768360Y-83616278D01*
X145859163Y-83662545D01*
X145859165Y-83662545D01*
X145859168Y-83662547D01*
X145955497Y-83693846D01*
X146038881Y-83720940D01*
X146225514Y-83750500D01*
X146225519Y-83750500D01*
X146414486Y-83750500D01*
X146601118Y-83720940D01*
X146780832Y-83662547D01*
X146949199Y-83576760D01*
X147102073Y-83465690D01*
X147232319Y-83335444D01*
X147293642Y-83301959D01*
X147363334Y-83306943D01*
X147407681Y-83335444D01*
X147537927Y-83465690D01*
X147690801Y-83576760D01*
X147768360Y-83616278D01*
X147859163Y-83662545D01*
X147859165Y-83662545D01*
X147859168Y-83662547D01*
X147955497Y-83693846D01*
X148038881Y-83720940D01*
X148225514Y-83750500D01*
X148225519Y-83750500D01*
X148414486Y-83750500D01*
X148601118Y-83720940D01*
X148780832Y-83662547D01*
X148949199Y-83576760D01*
X149102073Y-83465690D01*
X149235690Y-83332073D01*
X149346760Y-83179199D01*
X149432547Y-83010832D01*
X149490940Y-82831118D01*
X149496939Y-82793240D01*
X149520500Y-82644486D01*
X149520500Y-82455513D01*
X149490940Y-82268881D01*
X149432545Y-82089163D01*
X149370636Y-81967661D01*
X149346760Y-81920801D01*
X149235690Y-81767927D01*
X149102073Y-81634310D01*
X148949199Y-81523240D01*
X148933027Y-81515000D01*
X148780836Y-81437454D01*
X148601118Y-81379059D01*
X148414486Y-81349500D01*
X148414481Y-81349500D01*
X148225519Y-81349500D01*
X148225514Y-81349500D01*
X148038881Y-81379059D01*
X147859163Y-81437454D01*
X147690800Y-81523240D01*
X147638215Y-81561446D01*
X147537927Y-81634310D01*
X147537925Y-81634312D01*
X147537924Y-81634312D01*
X147407681Y-81764556D01*
X147346358Y-81798041D01*
X147276666Y-81793057D01*
X147232319Y-81764556D01*
X147102075Y-81634312D01*
X147102073Y-81634310D01*
X146949199Y-81523240D01*
X146933027Y-81515000D01*
X146780836Y-81437454D01*
X146601118Y-81379059D01*
X146414486Y-81349500D01*
X146414481Y-81349500D01*
X146225519Y-81349500D01*
X146225514Y-81349500D01*
X146038881Y-81379059D01*
X145859163Y-81437454D01*
X145690800Y-81523240D01*
X145638215Y-81561446D01*
X145537927Y-81634310D01*
X145537925Y-81634312D01*
X145537924Y-81634312D01*
X145404312Y-81767924D01*
X145404312Y-81767925D01*
X145404310Y-81767927D01*
X145356610Y-81833579D01*
X145293240Y-81920800D01*
X145207454Y-82089163D01*
X145149059Y-82268881D01*
X145119500Y-82455513D01*
X136781169Y-82455513D01*
X136001910Y-81676254D01*
X135061543Y-80735886D01*
X134477838Y-80152181D01*
X134444353Y-80090858D01*
X134449337Y-80021166D01*
X134491209Y-79965233D01*
X134556673Y-79940816D01*
X134565519Y-79940500D01*
X134714486Y-79940500D01*
X134901118Y-79910940D01*
X135080832Y-79852547D01*
X135249199Y-79766760D01*
X135402073Y-79655690D01*
X135535690Y-79522073D01*
X135646760Y-79369199D01*
X135732547Y-79200832D01*
X135790940Y-79021118D01*
X135811993Y-78888194D01*
X135820500Y-78834486D01*
X135820500Y-78645513D01*
X135790940Y-78458881D01*
X135732545Y-78279163D01*
X135671681Y-78159712D01*
X135646760Y-78110801D01*
X135535690Y-77957927D01*
X135402073Y-77824310D01*
X135249199Y-77713240D01*
X135080836Y-77627454D01*
X134901118Y-77569059D01*
X134714486Y-77539500D01*
X134714481Y-77539500D01*
X134525519Y-77539500D01*
X134525514Y-77539500D01*
X134338881Y-77569059D01*
X134159163Y-77627454D01*
X133990800Y-77713240D01*
X133903579Y-77776610D01*
X133837927Y-77824310D01*
X133837925Y-77824312D01*
X133837924Y-77824312D01*
X133704312Y-77957924D01*
X133704312Y-77957925D01*
X133704310Y-77957927D01*
X133666097Y-78010523D01*
X133593240Y-78110800D01*
X133507454Y-78279163D01*
X133449059Y-78458881D01*
X133419500Y-78645513D01*
X133419500Y-78794481D01*
X133399815Y-78861520D01*
X133347011Y-78907275D01*
X133277853Y-78917219D01*
X133214297Y-78888194D01*
X133207819Y-78882162D01*
X132308819Y-77983162D01*
X132275334Y-77921839D01*
X132272500Y-77895481D01*
X132272500Y-77303519D01*
X132292185Y-77236480D01*
X132308819Y-77215838D01*
X139953838Y-69570819D01*
X140015161Y-69537334D01*
X140041519Y-69534500D01*
X142238807Y-69534500D01*
X142305846Y-69554185D01*
X142351601Y-69606989D01*
X142361545Y-69676147D01*
X142357883Y-69693095D01*
X142317402Y-69832426D01*
X142317401Y-69832432D01*
X142314500Y-69869298D01*
X142314500Y-71100701D01*
X142317401Y-71137567D01*
X142317402Y-71137573D01*
X142363254Y-71295393D01*
X142363255Y-71295396D01*
X142446917Y-71436862D01*
X142446923Y-71436870D01*
X142563129Y-71553076D01*
X142563133Y-71553079D01*
X142563135Y-71553081D01*
X142704602Y-71636744D01*
X142705721Y-71637069D01*
X142862426Y-71682597D01*
X142862429Y-71682597D01*
X142862431Y-71682598D01*
X142899306Y-71685500D01*
X142899314Y-71685500D01*
X142983090Y-71685500D01*
X143050129Y-71705185D01*
X143095884Y-71757989D01*
X143105828Y-71827147D01*
X143076803Y-71890703D01*
X143039385Y-71919985D01*
X142885800Y-71998240D01*
X142798579Y-72061610D01*
X142732927Y-72109310D01*
X142732925Y-72109312D01*
X142732924Y-72109312D01*
X142599312Y-72242924D01*
X142599312Y-72242925D01*
X142599310Y-72242927D01*
X142576142Y-72274815D01*
X142488240Y-72395800D01*
X142402454Y-72564163D01*
X142344059Y-72743881D01*
X142314500Y-72930513D01*
X142314500Y-73119486D01*
X142344059Y-73306118D01*
X142402454Y-73485836D01*
X142468662Y-73615775D01*
X142488240Y-73654199D01*
X142599310Y-73807073D01*
X142732927Y-73940690D01*
X142885801Y-74051760D01*
X142978525Y-74099005D01*
X143039440Y-74130043D01*
X143090236Y-74178018D01*
X143107031Y-74245839D01*
X143084494Y-74311974D01*
X143029778Y-74355425D01*
X143021469Y-74358457D01*
X143015971Y-74360243D01*
X142833644Y-74453143D01*
X142789077Y-74485523D01*
X142789077Y-74485524D01*
X143468553Y-75165000D01*
X143462339Y-75165000D01*
X143360606Y-75192259D01*
X143269394Y-75244920D01*
X143194920Y-75319394D01*
X143142259Y-75410606D01*
X143115000Y-75512339D01*
X143115000Y-75518553D01*
X142435524Y-74839077D01*
X142435523Y-74839077D01*
X142403143Y-74883644D01*
X142310244Y-75065968D01*
X142247009Y-75260582D01*
X142215000Y-75462682D01*
X142215000Y-75667317D01*
X142247009Y-75869417D01*
X142310244Y-76064031D01*
X142403141Y-76246350D01*
X142403147Y-76246359D01*
X142435523Y-76290921D01*
X142435524Y-76290922D01*
X143115000Y-75611446D01*
X143115000Y-75617661D01*
X143142259Y-75719394D01*
X143194920Y-75810606D01*
X143269394Y-75885080D01*
X143360606Y-75937741D01*
X143462339Y-75965000D01*
X143468552Y-75965000D01*
X142789076Y-76644474D01*
X142833650Y-76676859D01*
X143015967Y-76769754D01*
X143021458Y-76771538D01*
X143079135Y-76810973D01*
X143106336Y-76875331D01*
X143094425Y-76944178D01*
X143047183Y-76995655D01*
X143039440Y-76999955D01*
X142885805Y-77078236D01*
X142783885Y-77152286D01*
X142732927Y-77189310D01*
X142732925Y-77189312D01*
X142732924Y-77189312D01*
X142599312Y-77322924D01*
X142599312Y-77322925D01*
X142599310Y-77322927D01*
X142551610Y-77388579D01*
X142488240Y-77475800D01*
X142402454Y-77644163D01*
X142344059Y-77823881D01*
X142314500Y-78010513D01*
X142314500Y-78199486D01*
X142344059Y-78386118D01*
X142402454Y-78565836D01*
X142462431Y-78683546D01*
X142488240Y-78734199D01*
X142599310Y-78887073D01*
X142732927Y-79020690D01*
X142885801Y-79131760D01*
X142965347Y-79172290D01*
X143054163Y-79217545D01*
X143054165Y-79217545D01*
X143054168Y-79217547D01*
X143150497Y-79248846D01*
X143233881Y-79275940D01*
X143420514Y-79305500D01*
X143420519Y-79305500D01*
X143609486Y-79305500D01*
X143796118Y-79275940D01*
X143975832Y-79217547D01*
X144144199Y-79131760D01*
X144297073Y-79020690D01*
X144430690Y-78887073D01*
X144541760Y-78734199D01*
X144627547Y-78565832D01*
X144685940Y-78386118D01*
X144715500Y-78199486D01*
X144715500Y-78010523D01*
X144715500Y-78010519D01*
X144709609Y-77973329D01*
X144718562Y-77904041D01*
X144744398Y-77866256D01*
X145578113Y-77032543D01*
X145599888Y-76999955D01*
X145604902Y-76992452D01*
X145621451Y-76967684D01*
X145654775Y-76917811D01*
X145707580Y-76790328D01*
X145708479Y-76785811D01*
X145717488Y-76740519D01*
X145734500Y-76654993D01*
X145734500Y-69527007D01*
X145734500Y-69527004D01*
X145707581Y-69391677D01*
X145707580Y-69391676D01*
X145707580Y-69391672D01*
X145695320Y-69362073D01*
X145654778Y-69264195D01*
X145654771Y-69264182D01*
X145589041Y-69165811D01*
X145589038Y-69165807D01*
X145578114Y-69149457D01*
X145374838Y-68946181D01*
X145341353Y-68884858D01*
X145346337Y-68815166D01*
X145388209Y-68759233D01*
X145453673Y-68734816D01*
X145462519Y-68734500D01*
X145802481Y-68734500D01*
X145869520Y-68754185D01*
X145890162Y-68770819D01*
X149905597Y-72786254D01*
X149939082Y-72847577D01*
X149940389Y-72893333D01*
X149934500Y-72930513D01*
X149934500Y-73119486D01*
X149964059Y-73306118D01*
X150022454Y-73485836D01*
X150088662Y-73615775D01*
X150108240Y-73654199D01*
X150219310Y-73807073D01*
X150352927Y-73940690D01*
X150505801Y-74051760D01*
X150553151Y-74075886D01*
X150674163Y-74137545D01*
X150674165Y-74137545D01*
X150674168Y-74137547D01*
X150763734Y-74166649D01*
X150795803Y-74177069D01*
X150853478Y-74216507D01*
X150880676Y-74280866D01*
X150868761Y-74349712D01*
X150821516Y-74401188D01*
X150795803Y-74412931D01*
X150674163Y-74452454D01*
X150505800Y-74538240D01*
X150418579Y-74601610D01*
X150352927Y-74649310D01*
X150352925Y-74649312D01*
X150352924Y-74649312D01*
X150219312Y-74782924D01*
X150219312Y-74782925D01*
X150219310Y-74782927D01*
X150171610Y-74848579D01*
X150108240Y-74935800D01*
X150022454Y-75104163D01*
X149964059Y-75283881D01*
X149934500Y-75470513D01*
X149934500Y-75659486D01*
X149964059Y-75846118D01*
X150022454Y-76025836D01*
X150076378Y-76131666D01*
X150108240Y-76194199D01*
X150219310Y-76347073D01*
X150352927Y-76480690D01*
X150505801Y-76591760D01*
X150585347Y-76632290D01*
X150674163Y-76677545D01*
X150674165Y-76677545D01*
X150674168Y-76677547D01*
X150753529Y-76703333D01*
X150795803Y-76717069D01*
X150853478Y-76756507D01*
X150880676Y-76820866D01*
X150868761Y-76889712D01*
X150821516Y-76941188D01*
X150795803Y-76952931D01*
X150674163Y-76992454D01*
X150505800Y-77078240D01*
X150418579Y-77141610D01*
X150352927Y-77189310D01*
X150352925Y-77189312D01*
X150352924Y-77189312D01*
X150219312Y-77322924D01*
X150219312Y-77322925D01*
X150219310Y-77322927D01*
X150171610Y-77388579D01*
X150108240Y-77475800D01*
X150022454Y-77644163D01*
X149964059Y-77823881D01*
X149934500Y-78010513D01*
X149934500Y-78199486D01*
X149964059Y-78386118D01*
X150022454Y-78565836D01*
X150082431Y-78683546D01*
X150108240Y-78734199D01*
X150219310Y-78887073D01*
X150352927Y-79020690D01*
X150505801Y-79131760D01*
X150585347Y-79172290D01*
X150674163Y-79217545D01*
X150674165Y-79217545D01*
X150674168Y-79217547D01*
X150770497Y-79248846D01*
X150853881Y-79275940D01*
X151040514Y-79305500D01*
X151040519Y-79305500D01*
X151229486Y-79305500D01*
X151416118Y-79275940D01*
X151595832Y-79217547D01*
X151764199Y-79131760D01*
X151917073Y-79020690D01*
X152050690Y-78887073D01*
X152161760Y-78734199D01*
X152247547Y-78565832D01*
X152305940Y-78386118D01*
X152335500Y-78199486D01*
X152335500Y-78010513D01*
X152305940Y-77823881D01*
X152247545Y-77644163D01*
X152202290Y-77555347D01*
X152161760Y-77475801D01*
X152050690Y-77322927D01*
X151917073Y-77189310D01*
X151764199Y-77078240D01*
X151764191Y-77078236D01*
X151595836Y-76992454D01*
X151521472Y-76968291D01*
X151474195Y-76952930D01*
X151416521Y-76913493D01*
X151389323Y-76849134D01*
X151401238Y-76780288D01*
X151448482Y-76728812D01*
X151474194Y-76717069D01*
X151595832Y-76677547D01*
X151764199Y-76591760D01*
X151917073Y-76480690D01*
X152050690Y-76347073D01*
X152161760Y-76194199D01*
X152247547Y-76025832D01*
X152305940Y-75846118D01*
X152308579Y-75829457D01*
X152335500Y-75659486D01*
X152335500Y-75470513D01*
X154501500Y-75470513D01*
X154501500Y-75659486D01*
X154531059Y-75846118D01*
X154589454Y-76025836D01*
X154643378Y-76131666D01*
X154675240Y-76194199D01*
X154786310Y-76347073D01*
X154919927Y-76480690D01*
X155072801Y-76591760D01*
X155152347Y-76632290D01*
X155241163Y-76677545D01*
X155241165Y-76677545D01*
X155241168Y-76677547D01*
X155320529Y-76703333D01*
X155420881Y-76735940D01*
X155607514Y-76765500D01*
X155607519Y-76765500D01*
X155796486Y-76765500D01*
X155983118Y-76735940D01*
X156162832Y-76677547D01*
X156331199Y-76591760D01*
X156484073Y-76480690D01*
X156617690Y-76347073D01*
X156728760Y-76194199D01*
X156814547Y-76025832D01*
X156872940Y-75846118D01*
X156875579Y-75829457D01*
X156902500Y-75659486D01*
X156902500Y-75470513D01*
X156872940Y-75283881D01*
X156834313Y-75165000D01*
X156814547Y-75104168D01*
X156814545Y-75104165D01*
X156814545Y-75104163D01*
X156728759Y-74935800D01*
X156617690Y-74782927D01*
X156484073Y-74649310D01*
X156331199Y-74538240D01*
X156274831Y-74509519D01*
X156162836Y-74452454D01*
X155983118Y-74394059D01*
X155796486Y-74364500D01*
X155796481Y-74364500D01*
X155607519Y-74364500D01*
X155607514Y-74364500D01*
X155420881Y-74394059D01*
X155241163Y-74452454D01*
X155072800Y-74538240D01*
X154985579Y-74601610D01*
X154919927Y-74649310D01*
X154919925Y-74649312D01*
X154919924Y-74649312D01*
X154786312Y-74782924D01*
X154786312Y-74782925D01*
X154786310Y-74782927D01*
X154738610Y-74848579D01*
X154675240Y-74935800D01*
X154589454Y-75104163D01*
X154531059Y-75283881D01*
X154501500Y-75470513D01*
X152335500Y-75470513D01*
X152305940Y-75283881D01*
X152267313Y-75165000D01*
X152247547Y-75104168D01*
X152247545Y-75104165D01*
X152247545Y-75104163D01*
X152161759Y-74935800D01*
X152050690Y-74782927D01*
X151917073Y-74649310D01*
X151764199Y-74538240D01*
X151707831Y-74509519D01*
X151595836Y-74452454D01*
X151501609Y-74421838D01*
X151474195Y-74412930D01*
X151416521Y-74373493D01*
X151389323Y-74309134D01*
X151401238Y-74240288D01*
X151448482Y-74188812D01*
X151474194Y-74177069D01*
X151595832Y-74137547D01*
X151764199Y-74051760D01*
X151917073Y-73940690D01*
X152050690Y-73807073D01*
X152072821Y-73776613D01*
X152128152Y-73733948D01*
X152173138Y-73725500D01*
X158027481Y-73725500D01*
X158094520Y-73745185D01*
X158115162Y-73761819D01*
X158775181Y-74421838D01*
X158808666Y-74483161D01*
X158811500Y-74509519D01*
X158811500Y-76112480D01*
X158791815Y-76179519D01*
X158775181Y-76200161D01*
X149555888Y-85419453D01*
X149555887Y-85419454D01*
X149479222Y-85534192D01*
X149426421Y-85661667D01*
X149426418Y-85661679D01*
X149400002Y-85794485D01*
X149399999Y-85794502D01*
X149399500Y-85797007D01*
X149399500Y-91366481D01*
X149379815Y-91433520D01*
X149363181Y-91454162D01*
X147828162Y-92989181D01*
X147766839Y-93022666D01*
X147740481Y-93025500D01*
X134702519Y-93025500D01*
X134635480Y-93005815D01*
X134614838Y-92989181D01*
X130764402Y-89138745D01*
X130730917Y-89077422D01*
X130729610Y-89031665D01*
X130735500Y-88994479D01*
X130735500Y-88805513D01*
X130705940Y-88618881D01*
X130647545Y-88439163D01*
X130561759Y-88270800D01*
X130450690Y-88117927D01*
X130317073Y-87984310D01*
X130164199Y-87873240D01*
X130164191Y-87873236D01*
X129995836Y-87787454D01*
X129916468Y-87761666D01*
X129874195Y-87747930D01*
X129816521Y-87708493D01*
X129789323Y-87644134D01*
X129801238Y-87575288D01*
X129848482Y-87523812D01*
X129874194Y-87512069D01*
X129995832Y-87472547D01*
X130164199Y-87386760D01*
X130317073Y-87275690D01*
X130450690Y-87142073D01*
X130561760Y-86989199D01*
X130647547Y-86820832D01*
X130705940Y-86641118D01*
X130706008Y-86640687D01*
X130735500Y-86454486D01*
X130735500Y-86265514D01*
X130735499Y-86265512D01*
X130705940Y-86078881D01*
X130687760Y-86022930D01*
X130647547Y-85899168D01*
X130561760Y-85730801D01*
X130450690Y-85577927D01*
X130317073Y-85444310D01*
X130164199Y-85333240D01*
X129995836Y-85247454D01*
X129921472Y-85223291D01*
X129874195Y-85207930D01*
X129816521Y-85168493D01*
X129789323Y-85104134D01*
X129801238Y-85035288D01*
X129848482Y-84983812D01*
X129874194Y-84972069D01*
X129995832Y-84932547D01*
X130164199Y-84846760D01*
X130317073Y-84735690D01*
X130450690Y-84602073D01*
X130561760Y-84449199D01*
X130647547Y-84280832D01*
X130705940Y-84101118D01*
X130735500Y-83914486D01*
X130735500Y-83725513D01*
X130705940Y-83538881D01*
X130647545Y-83359163D01*
X130602290Y-83270347D01*
X130561760Y-83190801D01*
X130450690Y-83037927D01*
X130317073Y-82904310D01*
X130164199Y-82793240D01*
X129995836Y-82707454D01*
X129816118Y-82649059D01*
X129629486Y-82619500D01*
X129629481Y-82619500D01*
X129440519Y-82619500D01*
X129440514Y-82619500D01*
X129253881Y-82649059D01*
X129074163Y-82707454D01*
X128905800Y-82793240D01*
X128818579Y-82856610D01*
X128752927Y-82904310D01*
X128752925Y-82904312D01*
X128752924Y-82904312D01*
X128619312Y-83037924D01*
X128619312Y-83037925D01*
X128619310Y-83037927D01*
X128608029Y-83053454D01*
X128508240Y-83190800D01*
X128422454Y-83359163D01*
X128364059Y-83538881D01*
X128334500Y-83725513D01*
X128334500Y-83914486D01*
X128364059Y-84101118D01*
X128422454Y-84280836D01*
X128454579Y-84343884D01*
X128508240Y-84449199D01*
X128619310Y-84602073D01*
X128752927Y-84735690D01*
X128905801Y-84846760D01*
X128985347Y-84887290D01*
X129074163Y-84932545D01*
X129074165Y-84932545D01*
X129074168Y-84932547D01*
X129163734Y-84961649D01*
X129195803Y-84972069D01*
X129253478Y-85011507D01*
X129280676Y-85075866D01*
X129268761Y-85144712D01*
X129221516Y-85196188D01*
X129195803Y-85207931D01*
X129074163Y-85247454D01*
X128905800Y-85333240D01*
X128818579Y-85396610D01*
X128752927Y-85444310D01*
X128752925Y-85444312D01*
X128752924Y-85444312D01*
X128619312Y-85577924D01*
X128619312Y-85577925D01*
X128619310Y-85577927D01*
X128571610Y-85643579D01*
X128508240Y-85730800D01*
X128474506Y-85797007D01*
X128422453Y-85899168D01*
X128401137Y-85964771D01*
X128364059Y-86078881D01*
X128334500Y-86265513D01*
X128334500Y-86454486D01*
X128364059Y-86641118D01*
X128422454Y-86820836D01*
X128485571Y-86944709D01*
X128508240Y-86989199D01*
X128619310Y-87142073D01*
X128752927Y-87275690D01*
X128905801Y-87386760D01*
X128985347Y-87427290D01*
X129074163Y-87472545D01*
X129074165Y-87472545D01*
X129074168Y-87472547D01*
X129163734Y-87501649D01*
X129195803Y-87512069D01*
X129253478Y-87551507D01*
X129280676Y-87615866D01*
X129268761Y-87684712D01*
X129221516Y-87736188D01*
X129195803Y-87747931D01*
X129074163Y-87787454D01*
X128905800Y-87873240D01*
X128818579Y-87936610D01*
X128752927Y-87984310D01*
X128752925Y-87984312D01*
X128752924Y-87984312D01*
X128619312Y-88117924D01*
X128619312Y-88117925D01*
X128619310Y-88117927D01*
X128584426Y-88165940D01*
X128508240Y-88270800D01*
X128422454Y-88439163D01*
X128364059Y-88618881D01*
X128334500Y-88805513D01*
X128334500Y-88994486D01*
X128364059Y-89181118D01*
X128422454Y-89360836D01*
X128508240Y-89529199D01*
X128619310Y-89682073D01*
X128752927Y-89815690D01*
X128905801Y-89926760D01*
X128985347Y-89967290D01*
X129074163Y-90012545D01*
X129074165Y-90012545D01*
X129074168Y-90012547D01*
X129116868Y-90026421D01*
X129195803Y-90052069D01*
X129253478Y-90091507D01*
X129280676Y-90155866D01*
X129268761Y-90224712D01*
X129221516Y-90276188D01*
X129195803Y-90287931D01*
X129074163Y-90327454D01*
X128905800Y-90413240D01*
X128818579Y-90476610D01*
X128752927Y-90524310D01*
X128752925Y-90524312D01*
X128752924Y-90524312D01*
X128619312Y-90657924D01*
X128619312Y-90657925D01*
X128619310Y-90657927D01*
X128571610Y-90723579D01*
X128508240Y-90810800D01*
X128422454Y-90979163D01*
X128364059Y-91158881D01*
X128334500Y-91345513D01*
X128334500Y-91534486D01*
X128364059Y-91721118D01*
X128422454Y-91900836D01*
X128493264Y-92039807D01*
X128508240Y-92069199D01*
X128619310Y-92222073D01*
X128752927Y-92355690D01*
X128905801Y-92466760D01*
X128985347Y-92507290D01*
X129074163Y-92552545D01*
X129074165Y-92552545D01*
X129074168Y-92552547D01*
X129170497Y-92583846D01*
X129253881Y-92610940D01*
X129440514Y-92640500D01*
X129440519Y-92640500D01*
X129629486Y-92640500D01*
X129816118Y-92610940D01*
X129995832Y-92552547D01*
X130164199Y-92466760D01*
X130317073Y-92355690D01*
X130450690Y-92222073D01*
X130561760Y-92069199D01*
X130647547Y-91900832D01*
X130705940Y-91721118D01*
X130718945Y-91639006D01*
X130735500Y-91534486D01*
X130735500Y-91390519D01*
X130755185Y-91323480D01*
X130807989Y-91277725D01*
X130877147Y-91267781D01*
X130940703Y-91296806D01*
X130947181Y-91302838D01*
X133914453Y-94270111D01*
X133914454Y-94270112D01*
X134029192Y-94346777D01*
X134156667Y-94399578D01*
X134156672Y-94399580D01*
X134156676Y-94399580D01*
X134156677Y-94399581D01*
X134292003Y-94426500D01*
X134292006Y-94426500D01*
X134292007Y-94426500D01*
X137301044Y-94426500D01*
X137368083Y-94446185D01*
X137413838Y-94498989D01*
X137423782Y-94568147D01*
X137404432Y-94615815D01*
X137405786Y-94616645D01*
X137403244Y-94620792D01*
X137317454Y-94789163D01*
X137259059Y-94968881D01*
X137229500Y-95155513D01*
X137229500Y-95344486D01*
X137259059Y-95531118D01*
X137317454Y-95710836D01*
X137403240Y-95879199D01*
X137514310Y-96032073D01*
X137647927Y-96165690D01*
X137800801Y-96276760D01*
X137880347Y-96317290D01*
X137969163Y-96362545D01*
X137969165Y-96362545D01*
X137969168Y-96362547D01*
X138065497Y-96393846D01*
X138148881Y-96420940D01*
X138335514Y-96450500D01*
X138335519Y-96450500D01*
X138524486Y-96450500D01*
X138711118Y-96420940D01*
X138890832Y-96362547D01*
X139059199Y-96276760D01*
X139212073Y-96165690D01*
X139345690Y-96032073D01*
X139456760Y-95879199D01*
X139542547Y-95710832D01*
X139600940Y-95531118D01*
X139630500Y-95344486D01*
X139630500Y-95155513D01*
X139600940Y-94968881D01*
X139542545Y-94789163D01*
X139456755Y-94620792D01*
X139454214Y-94616645D01*
X139455871Y-94615629D01*
X139435159Y-94557584D01*
X139450981Y-94489529D01*
X139501085Y-94440833D01*
X139558956Y-94426500D01*
X148150996Y-94426500D01*
X148242040Y-94408389D01*
X148286328Y-94399580D01*
X148350069Y-94373177D01*
X148413807Y-94346777D01*
X148413808Y-94346776D01*
X148413811Y-94346775D01*
X148528543Y-94270114D01*
X150644114Y-92154543D01*
X150720775Y-92039811D01*
X150773580Y-91912328D01*
X150800500Y-91776994D01*
X150800500Y-91639006D01*
X150800500Y-86900513D01*
X151199500Y-86900513D01*
X151199500Y-87089486D01*
X151229059Y-87276118D01*
X151287454Y-87455836D01*
X151363953Y-87605973D01*
X151373240Y-87624199D01*
X151484310Y-87777073D01*
X151617927Y-87910690D01*
X151770801Y-88021760D01*
X151850347Y-88062290D01*
X151939163Y-88107545D01*
X151939165Y-88107545D01*
X151939168Y-88107547D01*
X152035497Y-88138846D01*
X152118881Y-88165940D01*
X152305514Y-88195500D01*
X152305519Y-88195500D01*
X152494486Y-88195500D01*
X152681118Y-88165940D01*
X152860832Y-88107547D01*
X153029199Y-88021760D01*
X153182073Y-87910690D01*
X153315690Y-87777073D01*
X153426760Y-87624199D01*
X153512547Y-87455832D01*
X153570940Y-87276118D01*
X153586694Y-87176652D01*
X153600500Y-87089486D01*
X153600500Y-86900513D01*
X153570940Y-86713881D01*
X153535759Y-86605606D01*
X153512547Y-86534168D01*
X153512545Y-86534165D01*
X153512545Y-86534163D01*
X153426759Y-86365800D01*
X153422545Y-86360000D01*
X153315690Y-86212927D01*
X153182073Y-86079310D01*
X153029199Y-85968240D01*
X152860836Y-85882454D01*
X152681118Y-85824059D01*
X152494486Y-85794500D01*
X152494481Y-85794500D01*
X152305519Y-85794500D01*
X152305514Y-85794500D01*
X152118881Y-85824059D01*
X151939163Y-85882454D01*
X151770800Y-85968240D01*
X151683579Y-86031610D01*
X151617927Y-86079310D01*
X151617925Y-86079312D01*
X151617924Y-86079312D01*
X151484312Y-86212924D01*
X151484312Y-86212925D01*
X151484310Y-86212927D01*
X151436610Y-86278579D01*
X151373240Y-86365800D01*
X151287454Y-86534163D01*
X151229059Y-86713881D01*
X151199500Y-86900513D01*
X150800500Y-86900513D01*
X150800500Y-86207519D01*
X150820185Y-86140480D01*
X150836819Y-86119838D01*
X151326144Y-85630513D01*
X154501500Y-85630513D01*
X154501500Y-85819486D01*
X154531059Y-86006118D01*
X154589454Y-86185836D01*
X154675240Y-86354199D01*
X154786310Y-86507073D01*
X154919927Y-86640690D01*
X155072801Y-86751760D01*
X155148209Y-86790182D01*
X155241163Y-86837545D01*
X155241165Y-86837545D01*
X155241168Y-86837547D01*
X155302066Y-86857334D01*
X155420881Y-86895940D01*
X155607514Y-86925500D01*
X155607519Y-86925500D01*
X155796486Y-86925500D01*
X155983118Y-86895940D01*
X156020222Y-86883884D01*
X156162832Y-86837547D01*
X156331199Y-86751760D01*
X156484073Y-86640690D01*
X156617690Y-86507073D01*
X156728760Y-86354199D01*
X156814547Y-86185832D01*
X156872940Y-86006118D01*
X156891630Y-85888113D01*
X156902500Y-85819486D01*
X156902500Y-85630513D01*
X156872940Y-85443881D01*
X156816200Y-85269256D01*
X156814547Y-85264168D01*
X156814545Y-85264165D01*
X156814545Y-85264163D01*
X156759047Y-85155243D01*
X156728760Y-85095801D01*
X156617690Y-84942927D01*
X156484073Y-84809310D01*
X156331199Y-84698240D01*
X156162836Y-84612454D01*
X155983118Y-84554059D01*
X155796486Y-84524500D01*
X155796481Y-84524500D01*
X155607519Y-84524500D01*
X155607514Y-84524500D01*
X155420881Y-84554059D01*
X155241163Y-84612454D01*
X155072800Y-84698240D01*
X154985579Y-84761610D01*
X154919927Y-84809310D01*
X154919925Y-84809312D01*
X154919924Y-84809312D01*
X154786312Y-84942924D01*
X154786312Y-84942925D01*
X154786310Y-84942927D01*
X154765137Y-84972069D01*
X154675240Y-85095800D01*
X154589454Y-85264163D01*
X154531059Y-85443881D01*
X154501500Y-85630513D01*
X151326144Y-85630513D01*
X160056112Y-76900545D01*
X160056114Y-76900543D01*
X160132775Y-76785811D01*
X160151536Y-76740519D01*
X160185578Y-76658332D01*
X160185580Y-76658328D01*
X160194389Y-76614040D01*
X160212500Y-76522996D01*
X160212500Y-74099005D01*
X160203101Y-74051759D01*
X160195567Y-74013882D01*
X160185580Y-73963672D01*
X160132775Y-73836189D01*
X160056114Y-73721457D01*
X160056112Y-73721454D01*
X158815545Y-72480887D01*
X158700807Y-72404222D01*
X158573332Y-72351421D01*
X158573322Y-72351418D01*
X158437996Y-72324500D01*
X158437994Y-72324500D01*
X158437993Y-72324500D01*
X152173138Y-72324500D01*
X152106099Y-72304815D01*
X152072821Y-72273387D01*
X152050690Y-72242927D01*
X151917075Y-72109312D01*
X151917073Y-72109310D01*
X151764199Y-71998240D01*
X151595836Y-71912454D01*
X151521472Y-71888291D01*
X151474195Y-71872930D01*
X151416521Y-71833493D01*
X151389323Y-71769134D01*
X151401238Y-71700288D01*
X151448482Y-71648812D01*
X151474194Y-71637069D01*
X151595832Y-71597547D01*
X151764199Y-71511760D01*
X151917073Y-71400690D01*
X152050690Y-71267073D01*
X152161760Y-71114199D01*
X152247547Y-70945832D01*
X152305940Y-70766118D01*
X152324763Y-70647274D01*
X152335500Y-70579486D01*
X152335500Y-70390513D01*
X152305940Y-70203881D01*
X152247545Y-70024163D01*
X152161759Y-69855800D01*
X152144781Y-69832432D01*
X152050690Y-69702927D01*
X151917073Y-69569310D01*
X151764199Y-69458240D01*
X151595836Y-69372454D01*
X151416118Y-69314059D01*
X151229486Y-69284500D01*
X151229481Y-69284500D01*
X151040519Y-69284500D01*
X151040514Y-69284500D01*
X150853881Y-69314059D01*
X150674163Y-69372454D01*
X150505800Y-69458240D01*
X150421484Y-69519500D01*
X150352927Y-69569310D01*
X150352925Y-69569312D01*
X150352924Y-69569312D01*
X150219312Y-69702924D01*
X150219312Y-69702925D01*
X150219310Y-69702927D01*
X150184426Y-69750940D01*
X150108240Y-69855800D01*
X150022454Y-70024163D01*
X149964059Y-70203881D01*
X149934500Y-70390513D01*
X149934500Y-70534480D01*
X149914815Y-70601519D01*
X149862011Y-70647274D01*
X149792853Y-70657218D01*
X149729297Y-70628193D01*
X149722819Y-70622161D01*
X146590545Y-67489887D01*
X146475807Y-67413222D01*
X146348332Y-67360421D01*
X146348322Y-67360418D01*
X146212996Y-67333500D01*
X146212994Y-67333500D01*
X146212993Y-67333500D01*
X139437623Y-67333500D01*
X139299635Y-67333500D01*
X139299633Y-67333500D01*
X139164306Y-67360418D01*
X139164296Y-67360421D01*
X139036821Y-67413222D01*
X138922083Y-67489887D01*
X138922082Y-67489888D01*
X130313791Y-76098181D01*
X130252468Y-76131666D01*
X130226110Y-76134500D01*
X124868138Y-76134500D01*
X124801099Y-76114815D01*
X124767821Y-76083387D01*
X124745690Y-76052927D01*
X124612075Y-75919312D01*
X124612073Y-75919310D01*
X124459199Y-75808240D01*
X124413804Y-75785110D01*
X124290836Y-75722454D01*
X124216472Y-75698291D01*
X124169195Y-75682930D01*
X124111521Y-75643493D01*
X124084323Y-75579134D01*
X124096238Y-75510288D01*
X124143482Y-75458812D01*
X124169194Y-75447069D01*
X124290832Y-75407547D01*
X124459199Y-75321760D01*
X124612073Y-75210690D01*
X124745690Y-75077073D01*
X124856760Y-74924199D01*
X124942547Y-74755832D01*
X125000940Y-74576118D01*
X125013940Y-74494038D01*
X125030500Y-74389486D01*
X125030500Y-74200513D01*
X125000940Y-74013881D01*
X124965322Y-73904263D01*
X124942547Y-73834168D01*
X124942545Y-73834165D01*
X124942545Y-73834163D01*
X124897208Y-73745185D01*
X124856760Y-73665801D01*
X124745690Y-73512927D01*
X124612073Y-73379310D01*
X124459199Y-73268240D01*
X124425619Y-73251130D01*
X124290836Y-73182454D01*
X124111118Y-73124059D01*
X123924486Y-73094500D01*
X123924481Y-73094500D01*
X123735519Y-73094500D01*
X123735514Y-73094500D01*
X123548881Y-73124059D01*
X123369163Y-73182454D01*
X123200800Y-73268240D01*
X123113579Y-73331610D01*
X123047927Y-73379310D01*
X123047925Y-73379312D01*
X123047924Y-73379312D01*
X122914312Y-73512924D01*
X122914312Y-73512925D01*
X122914310Y-73512927D01*
X122895284Y-73539114D01*
X122803240Y-73665800D01*
X122717454Y-73834163D01*
X122659059Y-74013881D01*
X122629500Y-74200513D01*
X122629500Y-74344480D01*
X122609815Y-74411519D01*
X122557011Y-74457274D01*
X122487853Y-74467218D01*
X122424297Y-74438193D01*
X122417819Y-74432161D01*
X120436545Y-72450887D01*
X120321807Y-72374222D01*
X120194332Y-72321421D01*
X120194322Y-72321418D01*
X120058996Y-72294500D01*
X120058994Y-72294500D01*
X120058993Y-72294500D01*
X106356518Y-72294500D01*
X106289479Y-72274815D01*
X106268837Y-72258181D01*
X105776819Y-71766162D01*
X105743334Y-71704839D01*
X105740500Y-71678481D01*
X105740500Y-70390513D01*
X113734500Y-70390513D01*
X113734500Y-70579486D01*
X113764059Y-70766118D01*
X113822454Y-70945836D01*
X113851602Y-71003041D01*
X113908240Y-71114199D01*
X114019310Y-71267073D01*
X114152927Y-71400690D01*
X114305801Y-71511760D01*
X114371356Y-71545162D01*
X114474163Y-71597545D01*
X114474165Y-71597545D01*
X114474168Y-71597547D01*
X114570497Y-71628846D01*
X114653881Y-71655940D01*
X114840514Y-71685500D01*
X114840519Y-71685500D01*
X115029486Y-71685500D01*
X115216118Y-71655940D01*
X115395832Y-71597547D01*
X115564199Y-71511760D01*
X115717073Y-71400690D01*
X115850690Y-71267073D01*
X115961760Y-71114199D01*
X116047547Y-70945832D01*
X116105940Y-70766118D01*
X116124763Y-70647274D01*
X116135500Y-70579486D01*
X116135500Y-70390513D01*
X123894500Y-70390513D01*
X123894500Y-70579486D01*
X123924059Y-70766118D01*
X123982454Y-70945836D01*
X124011602Y-71003041D01*
X124068240Y-71114199D01*
X124179310Y-71267073D01*
X124312927Y-71400690D01*
X124465801Y-71511760D01*
X124531356Y-71545162D01*
X124634163Y-71597545D01*
X124634165Y-71597545D01*
X124634168Y-71597547D01*
X124730497Y-71628846D01*
X124813881Y-71655940D01*
X125000514Y-71685500D01*
X125000519Y-71685500D01*
X125189486Y-71685500D01*
X125347246Y-71660513D01*
X127339500Y-71660513D01*
X127339500Y-71849486D01*
X127369059Y-72036118D01*
X127427454Y-72215836D01*
X127496537Y-72351418D01*
X127513240Y-72384199D01*
X127624310Y-72537073D01*
X127757927Y-72670690D01*
X127910801Y-72781760D01*
X127990347Y-72822290D01*
X128079163Y-72867545D01*
X128079165Y-72867545D01*
X128079168Y-72867547D01*
X128158529Y-72893333D01*
X128258881Y-72925940D01*
X128445514Y-72955500D01*
X128445519Y-72955500D01*
X128634486Y-72955500D01*
X128821118Y-72925940D01*
X129000832Y-72867547D01*
X129169199Y-72781760D01*
X129322073Y-72670690D01*
X129452319Y-72540444D01*
X129513642Y-72506959D01*
X129583334Y-72511943D01*
X129627681Y-72540444D01*
X129757927Y-72670690D01*
X129910801Y-72781760D01*
X129990347Y-72822290D01*
X130079163Y-72867545D01*
X130079165Y-72867545D01*
X130079168Y-72867547D01*
X130158529Y-72893333D01*
X130258881Y-72925940D01*
X130445514Y-72955500D01*
X130445519Y-72955500D01*
X130634486Y-72955500D01*
X130821118Y-72925940D01*
X131000832Y-72867547D01*
X131169199Y-72781760D01*
X131322073Y-72670690D01*
X131455690Y-72537073D01*
X131566760Y-72384199D01*
X131652547Y-72215832D01*
X131710940Y-72036118D01*
X131716939Y-71998240D01*
X131740500Y-71849486D01*
X131740500Y-71660513D01*
X131710940Y-71473881D01*
X131683846Y-71390497D01*
X131652547Y-71294168D01*
X131652545Y-71294165D01*
X131652545Y-71294163D01*
X131566759Y-71125800D01*
X131455690Y-70972927D01*
X131322073Y-70839310D01*
X131169199Y-70728240D01*
X131000836Y-70642454D01*
X130821118Y-70584059D01*
X130634486Y-70554500D01*
X130634481Y-70554500D01*
X130445519Y-70554500D01*
X130445514Y-70554500D01*
X130258881Y-70584059D01*
X130079163Y-70642454D01*
X129910800Y-70728240D01*
X129823579Y-70791610D01*
X129757927Y-70839310D01*
X129757925Y-70839312D01*
X129757924Y-70839312D01*
X129627681Y-70969556D01*
X129566358Y-71003041D01*
X129496666Y-70998057D01*
X129452319Y-70969556D01*
X129322075Y-70839312D01*
X129322073Y-70839310D01*
X129169199Y-70728240D01*
X129000836Y-70642454D01*
X128821118Y-70584059D01*
X128634486Y-70554500D01*
X128634481Y-70554500D01*
X128445519Y-70554500D01*
X128445514Y-70554500D01*
X128258881Y-70584059D01*
X128079163Y-70642454D01*
X127910800Y-70728240D01*
X127823579Y-70791610D01*
X127757927Y-70839310D01*
X127757925Y-70839312D01*
X127757924Y-70839312D01*
X127624312Y-70972924D01*
X127624312Y-70972925D01*
X127624310Y-70972927D01*
X127606052Y-70998057D01*
X127513240Y-71125800D01*
X127427454Y-71294163D01*
X127369059Y-71473881D01*
X127339500Y-71660513D01*
X125347246Y-71660513D01*
X125376118Y-71655940D01*
X125555832Y-71597547D01*
X125724199Y-71511760D01*
X125877073Y-71400690D01*
X126010690Y-71267073D01*
X126121760Y-71114199D01*
X126207547Y-70945832D01*
X126265940Y-70766118D01*
X126284763Y-70647274D01*
X126295500Y-70579486D01*
X126295500Y-70390513D01*
X126265940Y-70203881D01*
X126207545Y-70024163D01*
X126121759Y-69855800D01*
X126104781Y-69832432D01*
X126010690Y-69702927D01*
X125877073Y-69569310D01*
X125724199Y-69458240D01*
X125555836Y-69372454D01*
X125376118Y-69314059D01*
X125189486Y-69284500D01*
X125189481Y-69284500D01*
X125000519Y-69284500D01*
X125000514Y-69284500D01*
X124813881Y-69314059D01*
X124634163Y-69372454D01*
X124465800Y-69458240D01*
X124381484Y-69519500D01*
X124312927Y-69569310D01*
X124312925Y-69569312D01*
X124312924Y-69569312D01*
X124179312Y-69702924D01*
X124179312Y-69702925D01*
X124179310Y-69702927D01*
X124144426Y-69750940D01*
X124068240Y-69855800D01*
X123982454Y-70024163D01*
X123924059Y-70203881D01*
X123894500Y-70390513D01*
X116135500Y-70390513D01*
X116105940Y-70203881D01*
X116047545Y-70024163D01*
X115961759Y-69855800D01*
X115944781Y-69832432D01*
X115850690Y-69702927D01*
X115717073Y-69569310D01*
X115564199Y-69458240D01*
X115395836Y-69372454D01*
X115216118Y-69314059D01*
X115029486Y-69284500D01*
X115029481Y-69284500D01*
X114840519Y-69284500D01*
X114840514Y-69284500D01*
X114653881Y-69314059D01*
X114474163Y-69372454D01*
X114305800Y-69458240D01*
X114221484Y-69519500D01*
X114152927Y-69569310D01*
X114152925Y-69569312D01*
X114152924Y-69569312D01*
X114019312Y-69702924D01*
X114019312Y-69702925D01*
X114019310Y-69702927D01*
X113984426Y-69750940D01*
X113908240Y-69855800D01*
X113822454Y-70024163D01*
X113764059Y-70203881D01*
X113734500Y-70390513D01*
X105740500Y-70390513D01*
X105740500Y-70104313D01*
X105740499Y-70104298D01*
X105737598Y-70067432D01*
X105737597Y-70067426D01*
X105691746Y-69909607D01*
X105691744Y-69909604D01*
X105691744Y-69909603D01*
X105608081Y-69768136D01*
X105608079Y-69768134D01*
X105608076Y-69768130D01*
X105491869Y-69651923D01*
X105491861Y-69651917D01*
X105354731Y-69570819D01*
X105350397Y-69568256D01*
X105350396Y-69568255D01*
X105350395Y-69568255D01*
X105350392Y-69568253D01*
X105192573Y-69522402D01*
X105192567Y-69522401D01*
X105155701Y-69519500D01*
X105155694Y-69519500D01*
X103124306Y-69519500D01*
X103124298Y-69519500D01*
X103087432Y-69522401D01*
X103087426Y-69522402D01*
X102929607Y-69568253D01*
X102929604Y-69568255D01*
X102788138Y-69651917D01*
X102788130Y-69651923D01*
X102671923Y-69768130D01*
X102671917Y-69768138D01*
X102588255Y-69909604D01*
X102588253Y-69909607D01*
X102542402Y-70067426D01*
X102542401Y-70067432D01*
X102539500Y-70104298D01*
X102539500Y-72135701D01*
X102542401Y-72172567D01*
X102542402Y-72172573D01*
X102588253Y-72330392D01*
X102588255Y-72330395D01*
X102671917Y-72471861D01*
X102671923Y-72471869D01*
X102788130Y-72588076D01*
X102788134Y-72588079D01*
X102788136Y-72588081D01*
X102929603Y-72671744D01*
X102929604Y-72671744D01*
X102929607Y-72671746D01*
X103087426Y-72717597D01*
X103087429Y-72717597D01*
X103087431Y-72717598D01*
X103124306Y-72720500D01*
X104698482Y-72720500D01*
X104765521Y-72740185D01*
X104786163Y-72756819D01*
X105040221Y-73010877D01*
X105073706Y-73072200D01*
X105068722Y-73141892D01*
X105026850Y-73197825D01*
X104961386Y-73222242D01*
X104896245Y-73209043D01*
X104754383Y-73136761D01*
X104754382Y-73136760D01*
X104754379Y-73136759D01*
X104514785Y-73058910D01*
X104265962Y-73019500D01*
X104014038Y-73019500D01*
X103889626Y-73039205D01*
X103765214Y-73058910D01*
X103525616Y-73136760D01*
X103301151Y-73251132D01*
X103097350Y-73399201D01*
X103097345Y-73399205D01*
X102919205Y-73577345D01*
X102919201Y-73577350D01*
X102771132Y-73781151D01*
X102656760Y-74005616D01*
X102578910Y-74245214D01*
X102555335Y-74394059D01*
X102539500Y-74494038D01*
X102539500Y-74745962D01*
X102545355Y-74782927D01*
X102578910Y-74994785D01*
X102656760Y-75234383D01*
X102719145Y-75356819D01*
X102771113Y-75458812D01*
X102771132Y-75458848D01*
X102919201Y-75662649D01*
X102919205Y-75662654D01*
X103097345Y-75840794D01*
X103097350Y-75840798D01*
X103205416Y-75919312D01*
X103301155Y-75988870D01*
X103426868Y-76052924D01*
X103525616Y-76103239D01*
X103525618Y-76103239D01*
X103525621Y-76103241D01*
X103765215Y-76181090D01*
X103861183Y-76196290D01*
X103863797Y-76196704D01*
X103926932Y-76226633D01*
X103963863Y-76285945D01*
X103962865Y-76355807D01*
X103924255Y-76414040D01*
X103860585Y-76442116D01*
X103807643Y-76449086D01*
X103807632Y-76449088D01*
X103592381Y-76506763D01*
X103386497Y-76592045D01*
X103386479Y-76592054D01*
X103193511Y-76703462D01*
X103127595Y-76754042D01*
X103928941Y-77555387D01*
X103908409Y-77560889D01*
X103771592Y-77639881D01*
X103659881Y-77751592D01*
X103580889Y-77888409D01*
X103575387Y-77908940D01*
X102774042Y-77107595D01*
X102723462Y-77173511D01*
X102612054Y-77366479D01*
X102612045Y-77366497D01*
X102526763Y-77572381D01*
X102469088Y-77787632D01*
X102469085Y-77787645D01*
X102440000Y-78008575D01*
X97020500Y-78008575D01*
X97020500Y-68485513D01*
X133419500Y-68485513D01*
X133419500Y-68674486D01*
X133449059Y-68861118D01*
X133507454Y-69040836D01*
X133571133Y-69165811D01*
X133593240Y-69209199D01*
X133704310Y-69362073D01*
X133837927Y-69495690D01*
X133990801Y-69606760D01*
X134070347Y-69647290D01*
X134159163Y-69692545D01*
X134159165Y-69692545D01*
X134159168Y-69692547D01*
X134255497Y-69723846D01*
X134338881Y-69750940D01*
X134525514Y-69780500D01*
X134525519Y-69780500D01*
X134714486Y-69780500D01*
X134901118Y-69750940D01*
X135080832Y-69692547D01*
X135249199Y-69606760D01*
X135402073Y-69495690D01*
X135535690Y-69362073D01*
X135646760Y-69209199D01*
X135732547Y-69040832D01*
X135790940Y-68861118D01*
X135807077Y-68759233D01*
X135820500Y-68674486D01*
X135820500Y-68485513D01*
X135790940Y-68298881D01*
X135732545Y-68119163D01*
X135646759Y-67950800D01*
X135535690Y-67797927D01*
X135402073Y-67664310D01*
X135249199Y-67553240D01*
X135080836Y-67467454D01*
X134901118Y-67409059D01*
X134714486Y-67379500D01*
X134714481Y-67379500D01*
X134525519Y-67379500D01*
X134525514Y-67379500D01*
X134338881Y-67409059D01*
X134159163Y-67467454D01*
X133990800Y-67553240D01*
X133903579Y-67616610D01*
X133837927Y-67664310D01*
X133837925Y-67664312D01*
X133837924Y-67664312D01*
X133704312Y-67797924D01*
X133704312Y-67797925D01*
X133704310Y-67797927D01*
X133656610Y-67863579D01*
X133593240Y-67950800D01*
X133507454Y-68119163D01*
X133449059Y-68298881D01*
X133419500Y-68485513D01*
X97020500Y-68485513D01*
X97020500Y-66664500D01*
X97040185Y-66597461D01*
X97092989Y-66551706D01*
X97144500Y-66540500D01*
X160665500Y-66540500D01*
X160732539Y-66560185D01*
G37*
G04 #@! TD.AperFunction*
G04 #@! TD*
M02*
