M48
INCH,LZ
T1C0.0118
T2C0.0315
T3C0.0394
T4C0.0472
%
G90
G05
T1
X043701Y-032047
X044134Y-032874
X045354Y-035709
T2
X04525Y-02775
X045752Y-02925
X045752Y-03025
X045752Y-03125
X045752Y-03225
X048752Y-02925
X048752Y-03025
X048752Y-03125
X048752Y-03225
X04925Y-02775
X0505Y-0375
X050606Y-02825
X050998Y-033
X050998Y-034
X050998Y-035
X050998Y-036
X051394Y-02825
X053Y-027
X053Y-031
X053998Y-033
X053998Y-034
X053998Y-035
X053998Y-036
X0545Y-0375
X056Y-03425
X056502Y-02775
X056502Y-02875
X056502Y-02975
X056502Y-03075
X057606Y-0325
X058394Y-0325
X059502Y-02775
X059502Y-02875
X059502Y-02975
X059502Y-03075
X06Y-03425
X0613Y-02975
X0613Y-03375
T3
X039Y-03275
X039Y-03375
X039Y-03475
T4
X041Y-028
X041Y-029378
X041Y-030756
M30
